<?xml version="1.0" encoding="UTF-8" standalone="no"?>
<!-- Created with Inkscape (http://www.inkscape.org/) -->

<svg
   width="96.0px"
   height="96.0px"
   viewBox="0 0 96.0 96.0"
   version="1.1"
   id="SVGRoot"
   sodipodi:docname="logo-simplificado.svg"
   inkscape:version="1.2.2 (b0a8486541, 2022-12-01)"
   xmlns:inkscape="http://www.inkscape.org/namespaces/inkscape"
   xmlns:sodipodi="http://sodipodi.sourceforge.net/DTD/sodipodi-0.dtd"
   xmlns="http://www.w3.org/2000/svg"
   xmlns:svg="http://www.w3.org/2000/svg">
  <sodipodi:namedview
     id="namedview1088"
     pagecolor="#ffffff"
     bordercolor="#000000"
     borderopacity="0.25"
     inkscape:showpageshadow="2"
     inkscape:pageopacity="0.0"
     inkscape:pagecheckerboard="0"
     inkscape:deskcolor="#d1d1d1"
     inkscape:document-units="px"
     showgrid="true"
     inkscape:zoom="2.3786088"
     inkscape:cx="41.410761"
     inkscape:cy="24.804415"
     inkscape:window-width="1920"
     inkscape:window-height="1139"
     inkscape:window-x="0"
     inkscape:window-y="35"
     inkscape:window-maximized="1"
     inkscape:current-layer="layer1">
    <inkscape:grid
       type="xygrid"
       id="grid1211" />
  </sodipodi:namedview>
  <defs
     id="defs1083" />
  <g
     inkscape:label="Capa 1"
     inkscape:groupmode="layer"
     id="layer1">
    <path
       id="path2275"
       style="fill:#7eb6ca;fill-opacity:0.996078;stroke-width:0.20673"
       d="M 71.248375,2.2461022 70.995892,4.8627064 C 70.041368,14.750808 65.819339,19.554994 49.52859,29.288177 28.744818,41.705785 21.853729,49.605966 20.4645,62.608377 18.972245,76.57502 29.602102,91.142909 43.014943,93.51206 c 2.951315,0.521312 3.225415,0.18735 0.72356,-0.881485 C 28.856871,86.272864 22.054094,72.463936 27.51097,59.691749 30.777635,52.045872 36.469513,46.535776 49.526951,38.379069 64.33125,29.13115 69.537349,23.973511 72.031497,16.084378 73.543378,11.302161 73.441633,5.5248456 71.80197,3.073492 Z M 75.27602,22.849952 c -0.240769,0.08693 -0.615936,0.849984 -1.190259,2.255919 -1.312188,3.212236 -3.781788,6.745146 -6.910937,9.88659 -3.465369,3.478974 -6.822932,5.862279 -14.443249,10.25165 -8.939223,5.149068 -13.256334,8.610427 -17.019943,13.646487 -3.766125,5.039432 -5.581679,12.667375 -3.825446,16.073425 0.30166,0.585037 0.554365,0.42077 0.795693,-0.516982 1.976442,-7.680225 6.784014,-12.34284 19.693933,-19.101009 2.265636,-1.186026 4.877431,-2.584437 5.80375,-3.107362 C 69.938333,45.600467 75.68894,36.957013 75.67551,25.941458 75.67241,23.744337 75.58562,22.738182 75.27602,22.849952 Z m -5.357813,26.074226 c -0.222154,0.02475 -0.703193,0.660533 -1.533995,1.916557 -3.283823,4.964508 -6.364452,7.415961 -16.479475,13.115841 -7.537809,4.247609 -11.316638,7.786635 -12.999396,12.173129 -1.616076,4.212648 -1.170212,8.318043 1.156373,10.644637 0.901437,0.90143 1.046275,0.72695 0.676014,-0.816469 -1.519751,-6.335051 2.233645,-10.868044 14.577671,-17.604217 8.708238,-4.752124 13.317374,-10.340435 14.583688,-17.682337 0.204579,-1.186122 0.241287,-1.771939 0.01915,-1.747141 z" />
  </g>
</svg>
