<?xml version="1.0" encoding="UTF-8" standalone="no"?>
<!-- Created with Inkscape (http://www.inkscape.org/) -->

<svg
   width="96.0px"
   height="96.0px"
   viewBox="0 0 96.0 96.0"
   version="1.1"
   id="SVGRoot"
   sodipodi:docname="logo-completo.svg"
   inkscape:version="1.2.2 (b0a8486541, 2022-12-01)"
   xmlns:inkscape="http://www.inkscape.org/namespaces/inkscape"
   xmlns:sodipodi="http://sodipodi.sourceforge.net/DTD/sodipodi-0.dtd"
   xmlns="http://www.w3.org/2000/svg"
   xmlns:svg="http://www.w3.org/2000/svg">
  <sodipodi:namedview
     id="namedview211"
     pagecolor="#ffffff"
     bordercolor="#000000"
     borderopacity="0.25"
     inkscape:showpageshadow="2"
     inkscape:pageopacity="0.0"
     inkscape:pagecheckerboard="0"
     inkscape:deskcolor="#d1d1d1"
     inkscape:document-units="px"
     showgrid="true"
     inkscape:zoom="3.3638608"
     inkscape:cx="53.361304"
     inkscape:cy="86.507741"
     inkscape:window-width="1920"
     inkscape:window-height="1139"
     inkscape:window-x="0"
     inkscape:window-y="35"
     inkscape:window-maximized="1"
     inkscape:current-layer="layer1">
    <inkscape:grid
       type="xygrid"
       id="grid334" />
  </sodipodi:namedview>
  <defs
     id="defs206" />
  <g
     inkscape:label="Capa 1"
     inkscape:groupmode="layer"
     id="layer1">
    <g
       id="g820"
       transform="translate(0.45576987,-0.84450252)">
      <path
         id="path2275"
         style="fill:#7eb6ca;fill-opacity:0.996078;stroke-width:0.101259"
         d="m 59.911458,17.385813 -0.123669,1.281645 c -0.467537,4.84331 -2.535538,7.196458 -10.51494,11.963888 -10.180143,6.082291 -13.555482,9.951895 -14.235942,16.320634 -0.730926,6.841027 4.475709,13.976553 11.045479,15.136996 1.445586,0.255341 1.579846,0.09176 0.354407,-0.431765 -7.289204,-3.114085 -10.621286,-9.877862 -7.948439,-16.133831 1.600049,-3.745044 4.388002,-6.443952 10.783688,-10.439206 7.251326,-4.529743 9.801335,-7.056017 11.022999,-10.92021 0.740539,-2.342383 0.690702,-5.172184 -0.112424,-6.372885 z m 1.972789,10.092012 c -0.117932,0.04258 -0.301693,0.416333 -0.583001,1.104977 -0.642726,1.573392 -1.852368,3.303854 -3.385063,4.842569 -1.697376,1.704046 -3.341955,2.871416 -7.074476,5.021382 -4.378539,2.522077 -6.493112,4.217491 -8.336572,6.684213 -1.844696,2.468375 -2.733974,6.204631 -1.873751,7.872958 0.147757,0.286554 0.271538,0.206096 0.389741,-0.253223 0.968087,-3.76187 3.322894,-6.045672 9.646325,-9.355904 1.109735,-0.580931 2.389026,-1.265891 2.842748,-1.522024 5.759588,-3.25147 8.576302,-7.48514 8.569722,-12.880689 -0.0014,-1.076179 -0.04402,-1.569002 -0.195673,-1.514259 z m -2.62432,12.771467 c -0.108815,0.01213 -0.344432,0.323539 -0.751367,0.938753 -1.608459,2.431675 -3.117387,3.632428 -8.071849,6.424298 -3.692109,2.080532 -5.543022,3.813988 -6.36726,5.962545 -0.791569,2.063407 -0.57318,4.074276 0.566408,5.213869 0.44153,0.441536 0.512476,0.356067 0.331116,-0.399913 -0.74439,-3.102984 1.094069,-5.323302 7.14032,-8.622757 4.265402,-2.327651 6.523011,-5.064871 7.143267,-8.661024 0.100205,-0.580972 0.118184,-0.867915 0.0094,-0.855771 z" />
      <g
         id="g2539"
         transform="matrix(0.51798939,0,0,0.51798939,-5.8647569,-6.6541214)">
        <path
           d="m 135.25197,140.36774 q 1.2065,0 2.1082,0.5461 0.9144,0.5461 1.4097,1.5748 0.508,1.016 0.508,2.4765 0,1.4224 -0.5207,2.4892 -0.508,1.0668 -1.4224,1.6637 -0.9144,0.5969 -2.0955,0.5969 -1.2065,0 -2.1209,-0.5461 -0.9017,-0.5461 -1.4097,-1.5748 -0.4953,-1.0287 -0.4953,-2.4765 0,-1.4224 0.5207,-2.4892 0.5207,-1.0668 1.4224,-1.6637 0.9144,-0.5969 2.0955,-0.5969 z m -0.0508,0.2286 q -0.8255,0 -1.4351,0.5715 -0.6096,0.5715 -0.9525,1.5748 -0.3302,1.0033 -0.3302,2.3241 0,1.3462 0.3683,2.3495 0.381,0.9906 1.016,1.5367 0.6477,0.5334 1.4224,0.5334 0.8255,0 1.4351,-0.5715 0.6096,-0.5715 0.9398,-1.5748 0.3429,-1.016 0.3429,-2.3241 0,-1.3589 -0.381,-2.3495 -0.3683,-0.9906 -1.0033,-1.524 -0.635,-0.5461 -1.4224,-0.5461 z m 1.3843,-2.8194 q 0.254,-0.1651 0.4572,-0.1143 0.2159,0.0381 0.3175,0.2032 0.1016,0.1651 0.0508,0.3683 -0.0508,0.1905 -0.3175,0.3683 -0.2667,0.1651 -0.6223,0.3048 -0.3429,0.127 -0.8128,0.3175 -0.4572,0.1778 -1.1176,0.508 l -0.0889,-0.1651 q 0.5842,-0.4445 0.9525,-0.7747 0.381,-0.3429 0.6477,-0.5969 0.2667,-0.254 0.5334,-0.4191 z"
           id="path2425"
           style="font-size:12.7px;font-family:'Playfair Display';-inkscape-font-specification:'Playfair Display, Normal';stroke-width:0.4" />
        <path
           d="m 60.931551,140.54554 q -0.0508,0.4826 -0.0762,0.9398 -0.0127,0.4445 -0.0127,0.6858 0,0.3048 0.0127,0.5715 0.0127,0.2667 0.0254,0.4699 h -0.2921 q -0.0889,-0.889 -0.2413,-1.397 -0.1524,-0.5207 -0.5334,-0.7493 -0.381,-0.2286 -1.1811,-0.2286 h -0.8001 q -0.4318,0 -0.6604,0.0762 -0.2159,0.0635 -0.2921,0.2921 -0.0762,0.2159 -0.0762,0.6858 v 6.2992 q 0,0.4572 0.0889,0.6858 0.1016,0.2286 0.381,0.3048 0.2794,0.0762 0.8128,0.1016 v 0.254 q -0.3302,-0.0254 -0.8382,-0.0254 -0.508,-0.0127 -1.0287,-0.0127 -0.4953,0 -0.9271,0.0127 -0.4318,0 -0.6985,0.0254 v -0.254 q 0.4318,-0.0254 0.6477,-0.1016 0.2286,-0.0762 0.3048,-0.3048 0.0762,-0.2286 0.0762,-0.6858 v -6.2992 q 0,-0.4699 -0.0762,-0.6858 -0.0762,-0.2286 -0.3048,-0.3048 -0.2159,-0.0889 -0.6477,-0.1016 v -0.254 q 0.4699,0.0127 0.9906,0.0254 0.5207,0 1.0287,0.0127 0.508,0 0.9398,0 0.4445,0 0.7239,0 0.5842,0 1.3208,0 0.7493,-0.0127 1.3335,-0.0381 z m -1.9685,4.4704 q 0,0 0,0.127 0,0.127 0,0.127 h -2.54 q 0,0 0,-0.127 0,-0.127 0,-0.127 z m 0.2413,-1.6764 q -0.0508,0.7239 -0.0508,1.1049 0.0127,0.381 0.0127,0.6985 0,0.3175 0.0127,0.6985 0.0127,0.381 0.0635,1.1049 h -0.2921 q -0.0508,-0.4064 -0.127,-0.7874 -0.0635,-0.3937 -0.3048,-0.635 -0.2286,-0.254 -0.7874,-0.254 v -0.254 q 0.4191,0 0.635,-0.1651 0.2286,-0.1778 0.3302,-0.4445 0.1016,-0.2667 0.1397,-0.5461 0.0381,-0.2921 0.0762,-0.5207 z"
           id="path2411"
           style="font-size:12.7px;font-family:'Playfair Display';-inkscape-font-specification:'Playfair Display, Normal';stroke-width:0.4" />
        <path
           d="m 72.463159,140.54554 v 0.254 q -0.4318,0.0127 -0.6604,0.127 -0.2159,0.1143 -0.2921,0.3683 -0.0762,0.254 -0.0762,0.7239 v 3.8227 q 0,0.889 -0.1143,1.5494 -0.1143,0.6604 -0.4064,1.143 -0.3175,0.5334 -0.9271,0.8636 -0.6096,0.3175 -1.397,0.3175 -0.6096,0 -1.1684,-0.1524 -0.5461,-0.1397 -0.9652,-0.5334 -0.3683,-0.3556 -0.5842,-0.7493 -0.2032,-0.3937 -0.2794,-0.9652 -0.0762,-0.5715 -0.0762,-1.4351 v -3.9878 q 0,-0.4699 -0.0762,-0.6858 -0.0762,-0.2286 -0.3048,-0.3048 -0.2159,-0.0889 -0.6477,-0.1016 v -0.254 q 0.2667,0.0127 0.6985,0.0254 0.4318,0.0127 0.9271,0.0127 0.4445,0 0.8763,-0.0127 0.4445,-0.0127 0.7366,-0.0254 v 0.254 q -0.4318,0.0127 -0.6604,0.1016 -0.2159,0.0762 -0.2921,0.3048 -0.0762,0.2159 -0.0762,0.6858 v 4.2037 q 0,0.6477 0.0635,1.2319 0.0635,0.5715 0.254,1.016 0.2032,0.4318 0.6096,0.6858 0.4064,0.2413 1.0795,0.2413 0.9652,0 1.4859,-0.4191 0.5334,-0.4318 0.7366,-1.1811 0.2159,-0.7493 0.2159,-1.6891 v -3.9624 q 0,-0.4699 -0.1143,-0.7239 -0.1016,-0.254 -0.3556,-0.3683 -0.254,-0.1143 -0.6858,-0.127 v -0.254 q 0.2286,0.0127 0.5969,0.0254 0.381,0.0127 0.6985,0.0127 0.3302,0 0.6477,-0.0127 0.3302,-0.0127 0.5334,-0.0254 z"
           id="path2413"
           style="font-size:12.7px;font-family:'Playfair Display';-inkscape-font-specification:'Playfair Display, Normal';stroke-width:0.4" />
        <path
           d="m 84.477356,140.54554 v 0.254 q -0.4318,0.0127 -0.6604,0.127 -0.2159,0.1143 -0.2921,0.3683 -0.0762,0.254 -0.0762,0.7239 v 7.5819 q -0.0762,0 -0.1524,0 -0.0635,0 -0.1397,0 l -5.334,-8.2423 v 6.7056 q 0,0.4572 0.0762,0.7239 0.0889,0.254 0.3302,0.3683 0.254,0.1016 0.7493,0.127 v 0.254 q -0.2286,-0.0254 -0.5969,-0.0254 -0.3683,-0.0127 -0.6985,-0.0127 -0.3175,0 -0.6477,0.0127 -0.3175,0 -0.5334,0.0254 v -0.254 q 0.4318,-0.0254 0.6477,-0.127 0.2286,-0.1143 0.3048,-0.3683 0.0762,-0.2667 0.0762,-0.7239 v -6.1722 q 0,-0.4699 -0.0762,-0.6858 -0.0762,-0.2286 -0.3048,-0.3048 -0.2159,-0.0889 -0.6477,-0.1016 v -0.254 q 0.2159,0.0127 0.5334,0.0254 0.3302,0.0127 0.6477,0.0127 0.2794,0 0.5334,-0.0127 0.254,-0.0127 0.4572,-0.0254 l 4.4831,6.9088 v -5.4356 q 0,-0.4699 -0.0889,-0.7239 -0.0762,-0.254 -0.3302,-0.3683 -0.2413,-0.1143 -0.7366,-0.127 v -0.254 q 0.2286,0.0127 0.5969,0.0254 0.381,0.0127 0.6985,0.0127 0.3302,0 0.6477,-0.0127 0.3302,-0.0127 0.5334,-0.0254 z"
           id="path2415"
           style="font-size:12.7px;font-family:'Playfair Display';-inkscape-font-specification:'Playfair Display, Normal';stroke-width:0.4" />
        <path
           d="m 92.097354,140.54554 q 2.2733,0 3.3782,1.143 1.1049,1.1303 1.1049,3.2512 0,1.3843 -0.5461,2.4257 -0.5334,1.0287 -1.5621,1.6002 -1.0287,0.5715 -2.4892,0.5715 -0.1905,0 -0.508,-0.0127 -0.3175,-0.0127 -0.6604,-0.0127 -0.3302,-0.0127 -0.6096,-0.0127 -0.4445,0 -0.8763,0.0127 -0.4318,0 -0.6985,0.0254 v -0.254 q 0.4318,-0.0254 0.6477,-0.1016 0.2286,-0.0762 0.3048,-0.3048 0.0762,-0.2286 0.0762,-0.6858 v -6.2992 q 0,-0.4699 -0.0762,-0.6858 -0.0762,-0.2286 -0.3048,-0.3048 -0.2159,-0.0889 -0.6477,-0.1016 v -0.254 q 0.2667,0.0127 0.6985,0.0381 0.4318,0.0127 0.8509,0 0.4445,-0.0127 1.0033,-0.0254 0.5588,-0.0127 0.9144,-0.0127 z m -0.3175,0.2286 q -0.5842,0 -0.762,0.2159 -0.1778,0.2159 -0.1778,0.8763 v 6.35 q 0,0.6604 0.1778,0.8763 0.1905,0.2159 0.7747,0.2159 1.3843,0 2.1463,-0.4953 0.762,-0.508 1.0668,-1.4732 0.3048,-0.9652 0.3048,-2.3495 0,-1.4224 -0.3429,-2.3495 -0.3302,-0.9398 -1.1049,-1.397 -0.762,-0.4699 -2.0828,-0.4699 z"
           id="path2417"
           style="font-size:12.7px;font-family:'Playfair Display';-inkscape-font-specification:'Playfair Display, Normal';stroke-width:0.4" />
        <path
           d="m 104.11156,140.48204 3.0988,7.9883 q 0.1905,0.4826 0.4318,0.6477 0.2413,0.1524 0.4445,0.1651 v 0.254 q -0.254,-0.0254 -0.6223,-0.0254 -0.3683,-0.0127 -0.7366,-0.0127 -0.4953,0 -0.9271,0.0127 -0.4318,0 -0.6985,0.0254 v -0.254 q 0.6477,-0.0254 0.8255,-0.2159 0.1778,-0.2032 -0.0762,-0.8509 l -2.3622,-6.3119 0.2032,-0.1651 -2.2098,5.7404 q -0.2032,0.508 -0.2413,0.8636 -0.0381,0.3429 0.0635,0.5461 0.1143,0.2032 0.3683,0.2921 0.2667,0.0889 0.6604,0.1016 v 0.254 q -0.3556,-0.0254 -0.7493,-0.0254 -0.381,-0.0127 -0.7112,-0.0127 -0.3175,0 -0.5461,0.0127 -0.2159,0 -0.406404,0.0254 v -0.254 q 0.254004,-0.0635 0.520704,-0.2921 0.2667,-0.2413 0.4826,-0.8128 l 2.9845,-7.6962 q 0.0508,0 0.1016,0 0.0508,0 0.1016,0 z m 1.5494,5.3975 v 0.254 h -3.7846 l 0.127,-0.254 z"
           id="path2419"
           style="font-size:12.7px;font-family:'Playfair Display';-inkscape-font-specification:'Playfair Display, Normal';stroke-width:0.4" />
        <path
           d="m 115.88445,140.36774 q 0.8382,0 1.3716,0.254 0.5461,0.2413 0.9652,0.5715 0.254,0.1905 0.381,0.0508 0.1397,-0.1524 0.1905,-0.6985 h 0.2921 q -0.0254,0.4699 -0.0381,1.143 -0.0127,0.6731 -0.0127,1.778 h -0.2921 q -0.0889,-0.5461 -0.1651,-0.8636 -0.0762,-0.3302 -0.1905,-0.5588 -0.1016,-0.2286 -0.2794,-0.4572 -0.3937,-0.5207 -0.9906,-0.7493 -0.5969,-0.2413 -1.2573,-0.2413 -0.6223,0 -1.1303,0.3175 -0.4953,0.3048 -0.8636,0.889 -0.3556,0.5842 -0.5588,1.4097 -0.1905,0.8255 -0.1905,1.8542 0,1.0668 0.2159,1.8923 0.2159,0.8128 0.5969,1.3716 0.3937,0.5588 0.9144,0.8509 0.5334,0.2794 1.143,0.2794 0.5715,0 1.1938,-0.2286 0.6223,-0.2286 0.9779,-0.7366 0.2794,-0.3683 0.381,-0.8001 0.1143,-0.4318 0.2032,-1.2065 h 0.2921 q 0,1.1557 0.0127,1.8669 0.0127,0.6985 0.0381,1.1811 h -0.2921 q -0.0508,-0.5461 -0.1778,-0.6858 -0.1143,-0.1397 -0.3937,0.0381 -0.4699,0.3302 -1.0033,0.5842 -0.5207,0.2413 -1.3462,0.2413 -1.2065,0 -2.1209,-0.5461 -0.9017,-0.5461 -1.4097,-1.5748 -0.4953,-1.0287 -0.4953,-2.4765 0,-1.4224 0.5207,-2.4892 0.5207,-1.0668 1.4224,-1.6637 0.9144,-0.5969 2.0955,-0.5969 z"
           id="path2421"
           style="font-size:12.7px;font-family:'Playfair Display';-inkscape-font-specification:'Playfair Display, Normal';stroke-width:0.4" />
        <path
           d="m 126.84456,140.54554 v 0.254 q -0.4318,0.0127 -0.6604,0.1016 -0.2159,0.0762 -0.2921,0.3048 -0.0762,0.2159 -0.0762,0.6858 v 6.2992 q 0,0.4572 0.0762,0.6858 0.0762,0.2286 0.2921,0.3048 0.2286,0.0762 0.6604,0.1016 v 0.254 q -0.2921,-0.0254 -0.7366,-0.0254 -0.4318,-0.0127 -0.8763,-0.0127 -0.4953,0 -0.9271,0.0127 -0.4318,0 -0.6985,0.0254 v -0.254 q 0.4318,-0.0254 0.6477,-0.1016 0.2286,-0.0762 0.3048,-0.3048 0.0762,-0.2286 0.0762,-0.6858 v -6.2992 q 0,-0.4699 -0.0762,-0.6858 -0.0762,-0.2286 -0.3048,-0.3048 -0.2159,-0.0889 -0.6477,-0.1016 v -0.254 q 0.2667,0.0127 0.6985,0.0254 0.4318,0.0127 0.9271,0.0127 0.4445,0 0.8763,-0.0127 0.4445,-0.0127 0.7366,-0.0254 z"
           id="path2423"
           style="font-size:12.7px;font-family:'Playfair Display';-inkscape-font-specification:'Playfair Display, Normal';stroke-width:0.4" />
        <path
           d="m 151.62227,140.54554 v 0.254 q -0.4318,0.0127 -0.6604,0.127 -0.2159,0.1143 -0.2921,0.3683 -0.0762,0.254 -0.0762,0.7239 v 7.5819 q -0.0762,0 -0.1524,0 -0.0635,0 -0.1397,0 l -5.334,-8.2423 v 6.7056 q 0,0.4572 0.0762,0.7239 0.0889,0.254 0.3302,0.3683 0.254,0.1016 0.7493,0.127 v 0.254 q -0.2286,-0.0254 -0.5969,-0.0254 -0.3683,-0.0127 -0.6985,-0.0127 -0.3175,0 -0.6477,0.0127 -0.3175,0 -0.5334,0.0254 v -0.254 q 0.4318,-0.0254 0.6477,-0.127 0.2286,-0.1143 0.3048,-0.3683 0.0762,-0.2667 0.0762,-0.7239 v -6.1722 q 0,-0.4699 -0.0762,-0.6858 -0.0762,-0.2286 -0.3048,-0.3048 -0.2159,-0.0889 -0.6477,-0.1016 v -0.254 q 0.2159,0.0127 0.5334,0.0254 0.3302,0.0127 0.6477,0.0127 0.2794,0 0.5334,-0.0127 0.254,-0.0127 0.4572,-0.0254 l 4.4831,6.9088 v -5.4356 q 0,-0.4699 -0.0889,-0.7239 -0.0762,-0.254 -0.3302,-0.3683 -0.2413,-0.1143 -0.7366,-0.127 v -0.254 q 0.2286,0.0127 0.5969,0.0254 0.381,0.0127 0.6985,0.0127 0.3302,0 0.6477,-0.0127 0.3302,-0.0127 0.5334,-0.0254 z"
           id="path2427"
           style="font-size:12.7px;font-family:'Playfair Display';-inkscape-font-specification:'Playfair Display, Normal';stroke-width:0.4" />
        <path
           d="m 29.006033,155.91763 v 0.33122 q -0.563074,0.0166 -0.861172,0.13249 -0.281537,0.0994 -0.380903,0.39746 -0.09937,0.28154 -0.09937,0.8943 v 8.21425 q 0,0.5962 0.09937,0.8943 0.09937,0.2981 0.380903,0.39746 0.298098,0.0994 0.861172,0.13249 v 0.33122 q -0.380903,-0.0331 -0.960538,-0.0331 -0.563074,-0.0166 -1.14271,-0.0166 -0.645879,0 -1.208953,0.0166 -0.563074,0 -0.910855,0.0331 v -0.33122 q 0.563074,-0.0331 0.844611,-0.13249 0.298098,-0.0994 0.397464,-0.39746 0.09937,-0.2981 0.09937,-0.8943 v -9.10855 l 0.06624,0.0497 -4.057445,10.89714 h -0.264976 l -4.173372,-10.74809 v 8.7442 q 0,0.5962 0.09937,0.94398 0.115927,0.33122 0.430586,0.48027 0.33122,0.13249 0.977099,0.16561 v 0.33122 q -0.298098,-0.0331 -0.778367,-0.0331 -0.480269,-0.0166 -0.910855,-0.0166 -0.414025,0 -0.844611,0.0166 -0.414025,0 -0.695562,0.0331 v -0.33122 q 0.563074,-0.0331 0.844611,-0.16561 0.298098,-0.14905 0.397464,-0.48027 0.09937,-0.34778 0.09937,-0.94398 v -8.04864 q 0,-0.61276 -0.09937,-0.8943 -0.09937,-0.29809 -0.397464,-0.39746 -0.281537,-0.11593 -0.844611,-0.13249 v -0.33122 q 0.281537,0.0166 0.695562,0.0331 0.430586,0.0166 0.844611,0.0166 0.364342,0 0.745245,-0.0166 0.397464,-0.0166 0.66244,-0.0331 l 3.759347,9.90348 -0.281537,0.13249 3.726225,-9.98628 q 0.198732,0 0.380903,0 0.198732,0 0.397464,0 0.579636,0 1.14271,-0.0166 0.579635,-0.0166 0.960538,-0.0331 z"
           id="path2430"
           style="font-size:16.561px;font-family:'Playfair Display';-inkscape-font-specification:'Playfair Display, Normal';stroke-width:0.521606" />
        <path
           d="m 38.61142,155.83483 4.040885,10.41687 q 0.248415,0.62931 0.563074,0.84461 0.314659,0.19873 0.579635,0.21529 v 0.33122 q -0.33122,-0.0331 -0.811489,-0.0331 -0.480269,-0.0166 -0.960538,-0.0166 -0.645879,0 -1.208953,0.0166 -0.563074,0 -0.910855,0.0331 v -0.33122 q 0.844611,-0.0331 1.076465,-0.28154 0.231854,-0.26497 -0.09937,-1.10958 l -3.080347,-8.23082 0.264976,-0.21529 -2.881614,7.48557 q -0.264976,0.66244 -0.314659,1.12615 -0.04968,0.44714 0.08281,0.71212 0.149049,0.26498 0.480269,0.3809 0.347781,0.11593 0.861172,0.13249 v 0.33122 q -0.463708,-0.0331 -0.977099,-0.0331 -0.49683,-0.0166 -0.927416,-0.0166 -0.414025,0 -0.712123,0.0166 -0.281537,0 -0.529952,0.0331 v -0.33122 q 0.33122,-0.0828 0.679001,-0.3809 0.347781,-0.31466 0.629318,-1.05991 l 3.891835,-10.03596 q 0.06624,0 0.132488,0 0.06624,0 0.132488,0 z m 2.020443,7.03842 v 0.33122 h -4.935179 l 0.16561,-0.33122 z"
           id="path2432"
           style="font-size:16.561px;font-family:'Playfair Display';-inkscape-font-specification:'Playfair Display, Normal';stroke-width:0.521606" />
        <path
           d="m 58.915203,155.91763 v 0.33122 q -0.563074,0.0166 -0.861172,0.16561 -0.281537,0.14905 -0.380903,0.48027 -0.09937,0.33122 -0.09937,0.94398 v 9.88692 q -0.09937,0 -0.198732,0 -0.08281,0 -0.182171,0 l -6.95562,-10.74809 v 8.7442 q 0,0.5962 0.09937,0.94398 0.115927,0.33122 0.430586,0.48027 0.33122,0.13249 0.977099,0.16561 v 0.33122 q -0.298098,-0.0331 -0.778367,-0.0331 -0.480269,-0.0166 -0.910855,-0.0166 -0.414025,0 -0.844611,0.0166 -0.414025,0 -0.695562,0.0331 v -0.33122 q 0.563074,-0.0331 0.844611,-0.16561 0.298098,-0.14905 0.397464,-0.48027 0.09937,-0.34778 0.09937,-0.94398 v -8.04864 q 0,-0.61276 -0.09937,-0.8943 -0.09937,-0.29809 -0.397464,-0.39746 -0.281537,-0.11593 -0.844611,-0.13249 v -0.33122 q 0.281537,0.0166 0.695562,0.0331 0.430586,0.0166 0.844611,0.0166 0.364342,0 0.695562,-0.0166 0.33122,-0.0166 0.596196,-0.0331 l 5.846033,9.00919 v -7.08811 q 0,-0.61276 -0.115927,-0.94398 -0.09937,-0.33122 -0.430586,-0.48027 -0.314659,-0.14905 -0.960538,-0.16561 v -0.33122 q 0.298098,0.0166 0.778367,0.0331 0.49683,0.0166 0.910855,0.0166 0.430586,0 0.844611,-0.0166 0.430586,-0.0166 0.695562,-0.0331 z"
           id="path2434"
           style="font-size:16.561px;font-family:'Playfair Display';-inkscape-font-specification:'Playfair Display, Normal';stroke-width:0.521606" />
        <path
           d="m 69.779218,155.68578 q 1.573295,0 2.749126,0.71212 1.192392,0.71212 1.838271,2.05357 0.66244,1.32488 0.66244,3.22939 0,1.85483 -0.679001,3.24596 -0.66244,1.39112 -1.854832,2.16949 -1.192392,0.77837 -2.732565,0.77837 -1.573295,0 -2.765687,-0.71213 -1.175831,-0.71212 -1.838271,-2.05356 -0.645879,-1.34144 -0.645879,-3.2294 0,-1.85483 0.679001,-3.24595 0.679001,-1.39113 1.854832,-2.16949 1.192392,-0.77837 2.732565,-0.77837 z m -0.06624,0.2981 q -1.076465,0 -1.871393,0.74524 -0.794928,0.74525 -1.242075,2.05357 -0.430586,1.30831 -0.430586,3.03066 0,1.75546 0.480269,3.06378 0.49683,1.29176 1.32488,2.00388 0.844611,0.69557 1.854832,0.69557 1.076465,0 1.871393,-0.74525 0.794928,-0.74524 1.225514,-2.05356 0.447147,-1.32488 0.447147,-3.03067 0,-1.77202 -0.49683,-3.06378 -0.480269,-1.29176 -1.308319,-1.98732 -0.82805,-0.71212 -1.854832,-0.71212 z"
           id="path2436"
           style="font-size:16.561px;font-family:'Playfair Display';-inkscape-font-specification:'Playfair Display, Normal';stroke-width:0.521606" />
        <path
           d="m 84.270089,155.73546 q 0.82805,0 1.258636,0.19873 0.430586,0.18217 0.761806,0.41403 0.198732,0.11593 0.314659,0.18217 0.132488,0.0497 0.248415,0.0497 0.16561,0 0.231854,-0.18217 0.0828,-0.18217 0.132488,-0.54651 h 0.380903 q -0.01656,0.28154 -0.04968,0.679 -0.01656,0.3809 -0.03312,1.02678 0,0.62932 0,1.67266 h -0.380903 q -0.04968,-0.79493 -0.347781,-1.52361 -0.298098,-0.72868 -0.877733,-1.19239 -0.563074,-0.46371 -1.49049,-0.46371 -0.877733,0 -1.457368,0.52995 -0.563074,0.52995 -0.563074,1.39113 0,0.74524 0.380903,1.25863 0.380903,0.49683 1.010221,0.91086 0.645879,0.39746 1.391124,0.86117 0.861172,0.52995 1.523612,1.0599 0.679001,0.51339 1.059904,1.14271 0.397464,0.62932 0.397464,1.52361 0,1.05991 -0.480269,1.75547 -0.480269,0.69556 -1.275197,1.04334 -0.794928,0.34779 -1.755466,0.34779 -0.877733,0 -1.391124,-0.19874 -0.513391,-0.19873 -0.877733,-0.41402 -0.364342,-0.23186 -0.563074,-0.23186 -0.165611,0 -0.248416,0.18218 -0.06624,0.18217 -0.115927,0.54651 H 81.07382 q 0.03312,-0.34778 0.03312,-0.81149 0.01656,-0.48027 0.01656,-1.24208 0.01656,-0.7618 0.01656,-1.92107 h 0.380903 q 0.06624,0.99366 0.364343,1.85483 0.314659,0.86117 0.943977,1.39112 0.645879,0.5134 1.705783,0.5134 0.546513,0 1.026782,-0.2153 0.49683,-0.23185 0.811489,-0.71212 0.314659,-0.49683 0.314659,-1.2752 0,-0.679 -0.33122,-1.17583 -0.314659,-0.51339 -0.894294,-0.94398 -0.579635,-0.44714 -1.358002,-0.91085 -0.778367,-0.48027 -1.457368,-0.9771 -0.679001,-0.49683 -1.093027,-1.14271 -0.397464,-0.66244 -0.397464,-1.58986 0,-0.97709 0.430586,-1.60641 0.447148,-0.64588 1.159271,-0.94398 0.712123,-0.31466 1.523612,-0.31466 z"
           id="path2438"
           style="font-size:16.561px;font-family:'Playfair Display';-inkscape-font-specification:'Playfair Display, Normal';stroke-width:0.521606" />
        <path
           d="m 106.18033,155.91763 q -0.0662,0.57964 -0.0994,1.12615 -0.0166,0.54651 -0.0166,0.82805 0,0.2981 0.0166,0.57964 0.0166,0.26497 0.0331,0.44714 h -0.38091 q -0.0994,-0.9771 -0.28153,-1.54017 -0.18217,-0.57964 -0.62932,-0.81149 -0.43059,-0.24841 -1.30832,-0.24841 h -1.37456 q -0.56308,0 -0.86117,0.0994 -0.28154,0.0828 -0.38091,0.3809 -0.0994,0.28154 -0.0994,0.8943 v 8.21425 q 0,0.5962 0.0994,0.8943 0.0994,0.2981 0.38091,0.39746 0.29809,0.0828 0.86117,0.0828 h 1.20895 q 1.04334,0 1.5733,-0.28154 0.54651,-0.28154 0.77836,-0.91085 0.24842,-0.64588 0.36434,-1.73891 h 0.38091 q -0.0497,0.44715 -0.0497,1.19239 0,0.31466 0.0166,0.91086 0.0331,0.57963 0.0994,1.20895 -0.84461,-0.0331 -1.90451,-0.0331 -1.05991,-0.0166 -1.88796,-0.0166 -0.36434,0 -0.94397,0 -0.56308,0 -1.22552,0.0166 -0.662444,0 -1.341444,0.0166 -0.679,0 -1.291758,0.0166 v -0.33122 q 0.563078,-0.0331 0.844608,-0.13249 0.2981,-0.0994 0.39747,-0.39746 0.0994,-0.2981 0.0994,-0.8943 v -8.21425 q 0,-0.61276 -0.0994,-0.8943 -0.0994,-0.29809 -0.39747,-0.39746 -0.28153,-0.11593 -0.844608,-0.13249 v -0.33122 q 0.612758,0.0166 1.291758,0.0331 0.679,0 1.341444,0.0166 0.66244,0 1.22552,0 0.57963,0 0.94397,0 0.76181,0 1.72235,0 0.9771,-0.0166 1.7389,-0.0497 z m -2.84849,5.66386 q 0,0 0,0.16561 0,0.16561 0,0.16561 h -3.03066 q 0,0 0,-0.16561 0,-0.16561 0,-0.16561 z m 0.48027,-2.18605 q -0.0662,0.94398 -0.0662,1.44081 0.0166,0.49683 0.0166,0.91085 0,0.41403 0.0166,0.91086 0.0166,0.49683 0.0828,1.44081 h -0.3809 q -0.0662,-0.52996 -0.16561,-1.02679 -0.0828,-0.51339 -0.39747,-0.82805 -0.29809,-0.33122 -1.02678,-0.33122 v -0.33122 q 0.54652,0 0.82805,-0.21529 0.2981,-0.23185 0.43059,-0.57963 0.13249,-0.34778 0.18217,-0.71213 0.0497,-0.3809 0.0994,-0.679 z"
           id="path2440"
           style="font-size:16.561px;font-family:'Playfair Display';-inkscape-font-specification:'Playfair Display, Normal';stroke-width:0.521606" />
        <path
           d="m 120.83681,155.91763 q -0.0662,0.62932 -0.0994,1.22552 -0.0166,0.57963 -0.0166,0.89429 0,0.39746 0.0166,0.74525 0.0166,0.34778 0.0331,0.61275 h -0.38091 q -0.11592,-1.15927 -0.31466,-1.82171 -0.19873,-0.679 -0.69556,-0.9771 -0.49683,-0.29809 -1.54017,-0.29809 h -0.8943 v 9.4232 q 0,0.66244 0.11593,0.99366 0.13249,0.33123 0.49683,0.44715 0.36434,0.11593 1.0599,0.14905 v 0.33122 q -0.43058,-0.0331 -1.09302,-0.0331 -0.66244,-0.0166 -1.34144,-0.0166 -0.74525,0 -1.40769,0.0166 -0.64588,0 -1.04334,0.0331 v -0.33122 q 0.69556,-0.0331 1.0599,-0.14905 0.36435,-0.11592 0.48027,-0.44715 0.13249,-0.33122 0.13249,-0.99366 v -9.4232 h -0.89429 q -1.02679,0 -1.54018,0.29809 -0.49683,0.2981 -0.69556,0.9771 -0.19873,0.66244 -0.31466,1.82171 h -0.3809 q 0.0331,-0.26497 0.0331,-0.61275 0.0166,-0.34779 0.0166,-0.74525 0,-0.31466 -0.0331,-0.89429 -0.0166,-0.5962 -0.0828,-1.22552 0.69556,0.0166 1.50705,0.0331 0.82805,0.0166 1.6561,0.0166 0.82805,0 1.50705,0 0.679,0 1.49049,0 0.82805,0 1.6561,-0.0166 0.82805,-0.0166 1.50705,-0.0331 z"
           id="path2442"
           style="font-size:16.561px;font-family:'Playfair Display';-inkscape-font-specification:'Playfair Display, Normal';stroke-width:0.521606" />
        <path
           d="m 134.00282,155.91763 q -0.0663,0.57964 -0.0994,1.12615 -0.0166,0.54651 -0.0166,0.82805 0,0.2981 0.0166,0.57964 0.0166,0.26497 0.0331,0.44714 h -0.3809 q -0.0994,-0.9771 -0.28154,-1.54017 -0.18217,-0.57964 -0.62931,-0.81149 -0.43059,-0.24841 -1.30832,-0.24841 h -1.37457 q -0.56307,0 -0.86117,0.0994 -0.28154,0.0828 -0.3809,0.3809 -0.0994,0.28154 -0.0994,0.8943 v 8.21425 q 0,0.5962 0.0994,0.8943 0.0994,0.2981 0.3809,0.39746 0.2981,0.0828 0.86117,0.0828 h 1.20896 q 1.04334,0 1.57329,-0.28154 0.54652,-0.28154 0.77837,-0.91085 0.24841,-0.64588 0.36434,-1.73891 h 0.3809 q -0.0497,0.44715 -0.0497,1.19239 0,0.31466 0.0166,0.91086 0.0331,0.57963 0.0994,1.20895 -0.84461,-0.0331 -1.90452,-0.0331 -1.0599,-0.0166 -1.88795,-0.0166 -0.36434,0 -0.94398,0 -0.56307,0 -1.22551,0.0166 -0.66244,0 -1.34144,0.0166 -0.679,0 -1.29176,0.0166 v -0.33122 q 0.56307,-0.0331 0.84461,-0.13249 0.2981,-0.0994 0.39746,-0.39746 0.0994,-0.2981 0.0994,-0.8943 v -8.21425 q 0,-0.61276 -0.0994,-0.8943 -0.0994,-0.29809 -0.39746,-0.39746 -0.28154,-0.11593 -0.84461,-0.13249 v -0.33122 q 0.61276,0.0166 1.29176,0.0331 0.679,0 1.34144,0.0166 0.66244,0 1.22551,0 0.57964,0 0.94398,0 0.7618,0 1.72234,0 0.9771,-0.0166 1.73891,-0.0497 z m -2.84849,5.66386 q 0,0 0,0.16561 0,0.16561 0,0.16561 h -3.03067 q 0,0 0,-0.16561 0,-0.16561 0,-0.16561 z m 0.48027,-2.18605 q -0.0662,0.94398 -0.0662,1.44081 0.0166,0.49683 0.0166,0.91085 0,0.41403 0.0166,0.91086 0.0166,0.49683 0.0828,1.44081 h -0.38091 q -0.0662,-0.52996 -0.16561,-1.02679 -0.0828,-0.51339 -0.39746,-0.82805 -0.2981,-0.33122 -1.02678,-0.33122 v -0.33122 q 0.54651,0 0.82805,-0.21529 0.2981,-0.23185 0.43058,-0.57963 0.13249,-0.34778 0.18218,-0.71213 0.0497,-0.3809 0.0994,-0.679 z m 0.24841,-7.08811 q 0.33122,-0.21529 0.5962,-0.14904 0.28153,0.0497 0.41402,0.26497 0.13249,0.21529 0.0663,0.48027 -0.0663,0.24842 -0.41403,0.48027 -0.34778,0.21529 -0.81149,0.39746 -0.44715,0.16561 -1.0599,0.41403 -0.5962,0.23185 -1.45737,0.66244 l -0.11593,-0.21529 q 0.76181,-0.57964 1.24208,-1.01023 0.49683,-0.44714 0.84461,-0.77836 0.34778,-0.33122 0.69556,-0.54652 z"
           id="path2444"
           style="font-size:16.561px;font-family:'Playfair Display';-inkscape-font-specification:'Playfair Display, Normal';stroke-width:0.521606" />
        <path
           d="m 139.94821,155.91763 q 0.34779,0.0166 0.91086,0.0331 0.56307,0.0166 1.10959,0.0166 0.77836,0 1.49049,-0.0166 0.71212,-0.0166 1.01022,-0.0166 1.34144,0 2.21917,0.38091 0.8943,0.3809 1.32488,1.04334 0.44715,0.64588 0.44715,1.45737 0,0.49683 -0.19873,1.0599 -0.19874,0.56308 -0.69557,1.05991 -0.48026,0.49683 -1.32488,0.82805 -0.84461,0.31465 -2.13636,0.31465 h -1.58986 v -0.33122 h 1.42425 q 1.17583,0 1.78858,-0.36434 0.62932,-0.3809 0.84461,-0.99366 0.23186,-0.62932 0.23186,-1.39112 0,-1.30832 -0.62932,-2.02044 -0.61276,-0.72869 -2.11981,-0.72869 -0.7618,0 -0.99366,0.28154 -0.23185,0.28154 -0.23185,1.14271 v 8.21425 q 0,0.5962 0.0994,0.8943 0.0994,0.2981 0.38091,0.39746 0.2981,0.0994 0.86117,0.13249 v 0.33122 q -0.3809,-0.0331 -0.96054,-0.0331 -0.56307,-0.0166 -1.14271,-0.0166 -0.64588,0 -1.20895,0.0166 -0.56307,0 -0.91086,0.0331 v -0.33122 q 0.56308,-0.0331 0.84462,-0.13249 0.29809,-0.0994 0.39746,-0.39746 0.0994,-0.2981 0.0994,-0.8943 v -8.21425 q 0,-0.61276 -0.0994,-0.8943 -0.0994,-0.29809 -0.39746,-0.39746 -0.28154,-0.11593 -0.84462,-0.13249 z m 2.6332,5.87916 q 0.8943,0.0331 1.40769,0.0828 0.51339,0.0331 0.82805,0.0662 0.33122,0.0331 0.62932,0.0828 1.10958,0.18217 1.58985,0.679 0.49683,0.48027 0.72869,1.50705 l 0.41402,1.68923 q 0.16561,0.72868 0.33122,1.0599 0.18217,0.31466 0.54651,0.2981 0.28154,-0.0166 0.46371,-0.18217 0.19873,-0.16561 0.41403,-0.44715 l 0.24841,0.18217 q -0.34778,0.51339 -0.72868,0.79493 -0.36434,0.26498 -1.04334,0.26498 -0.61276,0 -1.07647,-0.36435 -0.46371,-0.36434 -0.69556,-1.42424 l -0.36434,-1.6561 q -0.14905,-0.71213 -0.34778,-1.22552 -0.18218,-0.52995 -0.52996,-0.82805 -0.33122,-0.2981 -0.99366,-0.2981 h -1.78858 z"
           id="path2446"
           style="font-size:16.561px;font-family:'Playfair Display';-inkscape-font-specification:'Playfair Display, Normal';stroke-width:0.521606" />
        <path
           d="m 162.86867,155.91763 q -0.0662,0.57964 -0.0994,1.12615 -0.0166,0.54651 -0.0166,0.82805 0,0.2981 0.0166,0.57964 0.0166,0.26497 0.0331,0.44714 h -0.38091 q -0.0994,-0.9771 -0.28153,-1.54017 -0.18217,-0.57964 -0.62932,-0.81149 -0.43059,-0.24841 -1.30832,-0.24841 h -1.37456 q -0.56308,0 -0.86118,0.0994 -0.28153,0.0828 -0.3809,0.3809 -0.0994,0.28154 -0.0994,0.8943 v 8.21425 q 0,0.5962 0.0994,0.8943 0.0994,0.2981 0.3809,0.39746 0.2981,0.0828 0.86118,0.0828 h 1.20895 q 1.04334,0 1.57329,-0.28154 0.54652,-0.28154 0.77837,-0.91085 0.24842,-0.64588 0.36434,-1.73891 h 0.38091 q -0.0497,0.44715 -0.0497,1.19239 0,0.31466 0.0166,0.91086 0.0331,0.57963 0.0994,1.20895 -0.84461,-0.0331 -1.90451,-0.0331 -1.05991,-0.0166 -1.88796,-0.0166 -0.36434,0 -0.94398,0 -0.56307,0 -1.22551,0.0166 -0.66244,0 -1.34144,0.0166 -0.679,0 -1.29176,0.0166 v -0.33122 q 0.56308,-0.0331 0.84461,-0.13249 0.2981,-0.0994 0.39747,-0.39746 0.0994,-0.2981 0.0994,-0.8943 v -8.21425 q 0,-0.61276 -0.0994,-0.8943 -0.0994,-0.29809 -0.39747,-0.39746 -0.28153,-0.11593 -0.84461,-0.13249 v -0.33122 q 0.61276,0.0166 1.29176,0.0331 0.679,0 1.34144,0.0166 0.66244,0 1.22551,0 0.57964,0 0.94398,0 0.76181,0 1.72235,0 0.97709,-0.0166 1.7389,-0.0497 z m -2.84849,5.66386 q 0,0 0,0.16561 0,0.16561 0,0.16561 h -3.03066 q 0,0 0,-0.16561 0,-0.16561 0,-0.16561 z m 0.48027,-2.18605 q -0.0662,0.94398 -0.0662,1.44081 0.0166,0.49683 0.0166,0.91085 0,0.41403 0.0166,0.91086 0.0166,0.49683 0.0828,1.44081 h -0.3809 q -0.0662,-0.52996 -0.16561,-1.02679 -0.0828,-0.51339 -0.39747,-0.82805 -0.29809,-0.33122 -1.02678,-0.33122 v -0.33122 q 0.54651,0 0.82805,-0.21529 0.2981,-0.23185 0.43059,-0.57963 0.13249,-0.34778 0.18217,-0.71213 0.0497,-0.3809 0.0994,-0.679 z"
           id="path2448"
           style="font-size:16.561px;font-family:'Playfair Display';-inkscape-font-specification:'Playfair Display, Normal';stroke-width:0.521606" />
        <path
           d="m 172.90463,155.83483 4.04088,10.41687 q 0.24842,0.62931 0.56308,0.84461 0.31466,0.19873 0.57963,0.21529 v 0.33122 q -0.33122,-0.0331 -0.81149,-0.0331 -0.48027,-0.0166 -0.96054,-0.0166 -0.64588,0 -1.20895,0.0166 -0.56307,0 -0.91085,0.0331 v -0.33122 q 0.84461,-0.0331 1.07646,-0.28154 0.23185,-0.26497 -0.0994,-1.10958 l -3.08034,-8.23082 0.26497,-0.21529 -2.88161,7.48557 q -0.26498,0.66244 -0.31466,1.12615 -0.0497,0.44714 0.0828,0.71212 0.14905,0.26498 0.48027,0.3809 0.34778,0.11593 0.86117,0.13249 v 0.33122 q -0.46371,-0.0331 -0.9771,-0.0331 -0.49683,-0.0166 -0.92742,-0.0166 -0.41402,0 -0.71212,0.0166 -0.28154,0 -0.52995,0.0331 v -0.33122 q 0.33122,-0.0828 0.679,-0.3809 0.34778,-0.31466 0.62932,-1.05991 l 3.89183,-10.03596 q 0.0663,0 0.13249,0 0.0662,0 0.13249,0 z m 2.02044,7.03842 v 0.33122 h -4.93518 l 0.16561,-0.33122 z"
           id="path2450"
           style="font-size:16.561px;font-family:'Playfair Display';-inkscape-font-specification:'Playfair Display, Normal';stroke-width:0.521606" />
        <path
           d="m 186.35215,155.73546 q 0.82805,0 1.25864,0.19873 0.43059,0.18217 0.76181,0.41403 0.19873,0.11593 0.31466,0.18217 0.13248,0.0497 0.24841,0.0497 0.16561,0 0.23185,-0.18217 0.0828,-0.18217 0.13249,-0.54651 h 0.38091 q -0.0166,0.28154 -0.0497,0.679 -0.0166,0.3809 -0.0331,1.02678 0,0.62932 0,1.67266 h -0.3809 q -0.0497,-0.79493 -0.34778,-1.52361 -0.2981,-0.72868 -0.87774,-1.19239 -0.56307,-0.46371 -1.49049,-0.46371 -0.87773,0 -1.45736,0.52995 -0.56308,0.52995 -0.56308,1.39113 0,0.74524 0.3809,1.25863 0.38091,0.49683 1.01023,0.91086 0.64587,0.39746 1.39112,0.86117 0.86117,0.52995 1.52361,1.0599 0.679,0.51339 1.05991,1.14271 0.39746,0.62932 0.39746,1.52361 0,1.05991 -0.48027,1.75547 -0.48027,0.69556 -1.2752,1.04334 -0.79492,0.34779 -1.75546,0.34779 -0.87774,0 -1.39113,-0.19874 -0.51339,-0.19873 -0.87773,-0.41402 -0.36434,-0.23186 -0.56307,-0.23186 -0.16561,0 -0.24842,0.18218 -0.0662,0.18217 -0.11593,0.54651 h -0.3809 q 0.0331,-0.34778 0.0331,-0.81149 0.0166,-0.48027 0.0166,-1.24208 0.0166,-0.7618 0.0166,-1.92107 h 0.3809 q 0.0662,0.99366 0.36434,1.85483 0.31466,0.86117 0.94398,1.39112 0.64588,0.5134 1.70578,0.5134 0.54651,0 1.02678,-0.2153 0.49683,-0.23185 0.81149,-0.71212 0.31466,-0.49683 0.31466,-1.2752 0,-0.679 -0.33122,-1.17583 -0.31466,-0.51339 -0.89429,-0.94398 -0.57964,-0.44714 -1.35801,-0.91085 -0.77836,-0.48027 -1.45736,-0.9771 -0.679,-0.49683 -1.09303,-1.14271 -0.39746,-0.66244 -0.39746,-1.58986 0,-0.97709 0.43058,-1.60641 0.44715,-0.64588 1.15927,-0.94398 0.71213,-0.31466 1.52361,-0.31466 z"
           id="path2452"
           style="font-size:16.561px;font-family:'Playfair Display';-inkscape-font-specification:'Playfair Display, Normal';stroke-width:0.521606" />
      </g>
    </g>
  </g>
</svg>
