<?xml version="1.0" encoding="UTF-8" standalone="no"?>
<!-- Created with Inkscape (http://www.inkscape.org/) -->

<svg
   width="700"
   height="160"
   viewBox="0 0 700 160"
   version="1.1"
   id="SVGRoot"
   sodipodi:docname="logo-navbar.svg"
   inkscape:version="1.2.2 (b0a8486541, 2022-12-01)"
   xmlns:inkscape="http://www.inkscape.org/namespaces/inkscape"
   xmlns:sodipodi="http://sodipodi.sourceforge.net/DTD/sodipodi-0.dtd"
   xmlns="http://www.w3.org/2000/svg"
   xmlns:svg="http://www.w3.org/2000/svg">
  <sodipodi:namedview
     id="namedview873"
     pagecolor="#ffffff"
     bordercolor="#000000"
     borderopacity="0.25"
     inkscape:showpageshadow="2"
     inkscape:pageopacity="0.0"
     inkscape:pagecheckerboard="0"
     inkscape:deskcolor="#d1d1d1"
     inkscape:document-units="px"
     showgrid="false"
     inkscape:zoom="1.6819304"
     inkscape:cx="351.67924"
     inkscape:cy="254.46951"
     inkscape:window-width="1920"
     inkscape:window-height="1139"
     inkscape:window-x="0"
     inkscape:window-y="35"
     inkscape:window-maximized="1"
     inkscape:current-layer="layer1" />
  <defs
     id="defs868" />
  <g
     inkscape:label="Capa 1"
     inkscape:groupmode="layer"
     id="layer1">
    <g
       id="g354"
       transform="matrix(1.0269671,0,0,1.0269671,2.0806249,-0.88709242)"
       style="fill:#1a1a1a;stroke:#1a1a1a;stroke-width:0.338323;stroke-miterlimit:3.9;stroke-dasharray:none">
      <path
         d="m 498.75813,91.18776 q -0.21196,1.85591 -0.31826,3.60575 -0.0532,1.74984 -0.0532,2.65128 0,0.95447 0.0532,1.85592 0.0532,0.84839 0.10598,1.43167 h -1.21961 q -0.31827,-3.12852 -0.90142,-4.93138 -0.58328,-1.85591 -2.01498,-2.59826 -1.37868,-0.79537 -4.18903,-0.79537 h -4.40112 q -1.80289,0 -2.75733,0.31827 -0.90144,0.26511 -1.21961,1.21958 -0.31826,0.90144 -0.31826,2.8634 v 26.3007 q 0,1.90894 0.31826,2.86341 0.31826,0.95447 1.21961,1.2726 0.95444,0.26511 2.75733,0.26511 h 3.87087 q 3.3406,0 5.03745,-0.90144 1.74984,-0.90145 2.49218,-2.9164 0.7954,-2.068 1.16656,-5.56771 h 1.21961 q -0.15913,1.43171 -0.15913,3.81784 0,1.0075 0.0532,2.91643 0.10598,1.85588 0.31826,3.87087 -2.7043,-0.10599 -6.09793,-0.10599 -3.39366,-0.0532 -6.04494,-0.0532 -1.16656,0 -3.02244,0 -1.8029,0 -3.92392,0.0532 -2.12104,0 -4.29509,0.0531 -2.17405,0 -4.136,0.0532 v -1.06052 q 1.80288,-0.10598 2.7043,-0.42421 0.95447,-0.31826 1.27263,-1.2726 0.31827,-0.95447 0.31827,-2.86341 V 96.80891 q 0,-1.96196 -0.31827,-2.86341 -0.31826,-0.95443 -1.27263,-1.2726 -0.90142,-0.37119 -2.7043,-0.42421 v -1.06051 q 1.96195,0.0532 4.136,0.10598 2.17405,0 4.29509,0.0531 2.12102,0 3.92392,0 1.85588,0 3.02244,0 2.43919,0 5.51468,0 3.12852,-0.0531 5.56768,-0.15913 z m -9.1204,18.13477 q 0,0 0,0.53025 0,0.53026 0,0.53026 h -9.70369 q 0,0 0,-0.53026 0,-0.53025 0,-0.53025 z m 1.53774,-6.99938 q -0.21196,3.02247 -0.21196,4.61324 0.0532,1.59077 0.0532,2.91639 0,1.32566 0.0531,2.91643 0.0532,1.59077 0.26511,4.61324 h -1.21958 q -0.21196,-1.69684 -0.53025,-3.28761 -0.26512,-1.6438 -1.27264,-2.65129 -0.95443,-1.06051 -3.28758,-1.06051 v -1.06051 q 1.74987,0 2.65128,-0.68933 0.95447,-0.74234 1.37868,-1.85588 0.42421,-1.11354 0.58328,-2.28013 0.15913,-1.21958 0.31826,-2.17404 z"
         id="path331"
         style="font-size:16.561px;font-family:'Playfair Display';-inkscape-font-specification:'Playfair Display, Normal';fill:#1a1a1a;stroke:#1a1a1a;stroke-width:0.338323;stroke-miterlimit:3.9;stroke-dasharray:none" />
      <path
         d="m 502.75771,41.399514 q 3.86302,0 6.75012,1.748525 2.92776,1.748524 4.51363,5.042256 1.62654,3.253068 1.62654,7.929354 0,4.554296 -1.6672,7.970018 -1.62654,3.415721 -4.5543,5.326899 -2.92776,1.911178 -6.70945,1.911178 -3.86302,0 -6.79078,-1.748525 -2.8871,-1.748524 -4.51363,-5.042256 -1.58587,-3.293731 -1.58587,-7.929354 0,-4.554296 1.66719,-7.970017 1.6672,-3.415722 4.5543,-5.3269 2.92776,-1.911178 6.70945,-1.911178 z m -0.16265,0.731941 q -2.64312,0 -4.59496,1.829851 -1.95184,1.829851 -3.04975,5.042256 -1.05725,3.212405 -1.05725,7.441394 0,4.310315 1.17924,7.52272 1.2199,3.171742 3.25307,4.920266 2.07383,1.707861 4.55429,1.707861 2.64312,0 4.59496,-1.829851 1.95184,-1.829851 3.00909,-5.042256 1.09791,-3.253068 1.09791,-7.441394 0,-4.350979 -1.2199,-7.52272 -1.17924,-3.171742 -3.21241,-4.879603 -2.03316,-1.748524 -4.55429,-1.748524 z m 4.4323,-9.027265 q 0.81327,-0.528624 1.46389,-0.36597 0.69127,0.12199 1.01658,0.650613 0.32531,0.528624 0.16265,1.179238 -0.16265,0.60995 -1.01658,1.179237 -0.85393,0.528624 -1.99251,0.97592 -1.09791,0.406634 -2.60245,1.016584 -1.46388,0.569287 -3.57838,1.626535 l -0.28464,-0.528624 q 1.87052,-1.423218 3.04975,-2.480465 1.2199,-1.09791 2.07383,-1.911177 0.85393,-0.813268 1.70786,-1.341891 z"
         id="path2425"
         style="font-size:12.7px;font-family:'Playfair Display';-inkscape-font-specification:'Playfair Display, Normal';fill:#1a1a1a;stroke:#1a1a1a;stroke-width:0.338323;stroke-miterlimit:3.9;stroke-dasharray:none" />
      <path
         d="m 264.7957,41.968801 q -0.16266,1.545208 -0.24398,3.009089 -0.0407,1.423217 -0.0407,2.195821 0,0.97592 0.0407,1.829851 0.0407,0.85393 0.0813,1.504544 h -0.93525 q -0.28465,-2.846435 -0.77261,-4.472969 -0.48796,-1.667198 -1.70786,-2.399138 -1.2199,-0.731941 -3.78169,-0.731941 h -2.56179 q -1.38256,0 -2.1145,0.243981 -0.69127,0.203316 -0.93525,0.935257 -0.24398,0.691277 -0.24398,2.195821 v 20.169024 q 0,1.463881 0.28464,2.195821 0.32531,0.731941 1.2199,0.975921 0.89459,0.24398 2.60245,0.325307 v 0.813267 q -1.05724,-0.08133 -2.68378,-0.08133 -1.62653,-0.04066 -3.29373,-0.04066 -1.58587,0 -2.96842,0.04066 -1.38256,0 -2.23649,0.08133 V 69.94519 q 1.38256,-0.08133 2.07383,-0.325307 0.73194,-0.24398 0.97592,-0.975921 0.24398,-0.73194 0.24398,-2.195821 V 46.279117 q 0,-1.504544 -0.24398,-2.195821 -0.24398,-0.731941 -0.97592,-0.975921 -0.69127,-0.284643 -2.07383,-0.325307 v -0.813267 q 1.50455,0.04066 3.17174,0.08133 1.6672,0 3.29374,0.04066 1.62653,0 3.00908,0 1.42322,0 2.31782,0 1.87051,0 4.22898,0 2.39914,-0.04066 4.26966,-0.12199 z m -6.30282,14.313501 q 0,0 0,0.406634 0,0.406633 0,0.406633 h -8.13267 q 0,0 0,-0.406633 0,-0.406634 0,-0.406634 z m 0.7726,-5.367563 q -0.16265,2.317812 -0.16265,3.537712 0.0407,1.219901 0.0407,2.236485 0,1.016584 0.0407,2.236484 0.0407,1.219901 0.20332,3.537712 h -0.93526 q -0.16265,-1.301227 -0.40663,-2.521128 -0.20332,-1.260564 -0.97592,-2.033167 -0.73194,-0.813268 -2.52113,-0.813268 v -0.813267 q 1.34189,0 2.03317,-0.528623 0.73194,-0.569287 1.05725,-1.423218 0.3253,-0.85393 0.44729,-1.748524 0.12199,-0.935257 0.24398,-1.667198 z"
         id="path2411"
         style="font-size:12.7px;font-family:'Playfair Display';-inkscape-font-specification:'Playfair Display, Normal';fill:#1a1a1a;stroke:#1a1a1a;stroke-width:0.338323;stroke-miterlimit:3.9;stroke-dasharray:none" />
      <path
         d="m 301.71805,41.968801 v 0.813267 q -1.38256,0.04066 -2.1145,0.406634 -0.69127,0.36597 -0.93525,1.179237 -0.24398,0.813267 -0.24398,2.317811 v 12.23967 q 0,2.846435 -0.36597,4.96093 -0.36597,2.114494 -1.30123,3.659702 -1.01658,1.707861 -2.96843,2.765108 -1.95184,1.016584 -4.47296,1.016584 -1.95185,0 -3.74103,-0.48796 -1.74853,-0.447297 -3.09042,-1.707861 -1.17924,-1.138574 -1.87051,-2.399138 -0.65062,-1.260564 -0.8946,-3.090415 -0.24398,-1.829851 -0.24398,-4.59496 V 46.279117 q 0,-1.504544 -0.24398,-2.195821 -0.24398,-0.731941 -0.97592,-0.975921 -0.69127,-0.284643 -2.07383,-0.325307 v -0.813267 q 0.85393,0.04066 2.23649,0.08133 1.38255,0.04066 2.96842,0.04066 1.42322,0 2.80577,-0.04066 1.42322,-0.04066 2.35848,-0.08133 v 0.813267 q -1.38256,0.04066 -2.1145,0.325307 -0.69127,0.24398 -0.93525,0.975921 -0.24398,0.691277 -0.24398,2.195821 v 13.459571 q 0,2.073831 0.20331,3.944345 0.20332,1.829851 0.81327,3.253068 0.65061,1.382554 1.95184,2.195822 1.30123,0.772603 3.45639,0.772603 3.09041,0 4.75761,-1.34189 1.70786,-1.382554 2.35847,-3.781692 0.69128,-2.399138 0.69128,-5.408227 V 46.68575 q 0,-1.504544 -0.36597,-2.317811 -0.32531,-0.813267 -1.13857,-1.179237 -0.81327,-0.36597 -2.19583,-0.406634 v -0.813267 q 0.73194,0.04066 1.91118,0.08133 1.2199,0.04066 2.23649,0.04066 1.05724,0 2.07383,-0.04066 1.05724,-0.04066 1.70786,-0.08133 z"
         id="path2413"
         style="font-size:12.7px;font-family:'Playfair Display';-inkscape-font-specification:'Playfair Display, Normal';fill:#1a1a1a;stroke:#1a1a1a;stroke-width:0.338323;stroke-miterlimit:3.9;stroke-dasharray:none" />
      <path
         d="m 340.18557,41.968801 v 0.813267 q -1.38255,0.04066 -2.11449,0.406634 -0.69128,0.36597 -0.93526,1.179237 -0.24398,0.813267 -0.24398,2.317811 v 24.276024 q -0.24398,0 -0.48796,0 -0.20332,0 -0.4473,0 L 318.87797,44.571256 v 21.470252 q 0,1.46388 0.24399,2.317811 0.28464,0.813267 1.05724,1.179237 0.81327,0.325307 2.39914,0.406634 v 0.813267 q -0.73194,-0.08133 -1.91118,-0.08133 -1.17923,-0.04066 -2.23648,-0.04066 -1.01659,0 -2.07383,0.04066 -1.01659,0 -1.70786,0.08133 V 69.94519 q 1.38255,-0.08133 2.07383,-0.406634 0.73194,-0.36597 0.97592,-1.179237 0.24398,-0.853931 0.24398,-2.317811 V 46.279117 q 0,-1.504544 -0.24398,-2.195821 -0.24398,-0.731941 -0.97592,-0.975921 -0.69128,-0.284643 -2.07383,-0.325307 v -0.813267 q 0.69127,0.04066 1.70786,0.08133 1.05724,0.04066 2.07383,0.04066 0.89459,0 1.70786,-0.04066 0.81327,-0.04066 1.46388,-0.08133 l 14.35416,22.120866 V 46.68575 q 0,-1.504544 -0.28464,-2.317811 -0.24398,-0.813267 -1.05725,-1.179237 -0.7726,-0.36597 -2.35847,-0.406634 v -0.813267 q 0.73194,0.04066 1.91118,0.08133 1.2199,0.04066 2.23648,0.04066 1.05725,0 2.07383,-0.04066 1.05725,-0.04066 1.70786,-0.08133 z"
         id="path2415"
         style="font-size:12.7px;font-family:'Playfair Display';-inkscape-font-specification:'Playfair Display, Normal';fill:#1a1a1a;stroke:#1a1a1a;stroke-width:0.338323;stroke-miterlimit:3.9;stroke-dasharray:none" />
      <path
         d="m 364.58358,41.968801 q 7.27874,0 10.81645,3.659702 3.53771,3.619039 3.53771,10.409819 0,4.432306 -1.74852,7.766701 -1.70786,3.293732 -5.00159,5.123583 -3.29373,1.829851 -7.97002,1.829851 -0.60995,0 -1.62653,-0.04066 -1.01659,-0.04066 -2.1145,-0.04066 -1.05725,-0.04066 -1.95184,-0.04066 -1.42322,0 -2.80577,0.04066 -1.38256,0 -2.23649,0.08133 V 69.94519 q 1.38256,-0.08133 2.07383,-0.325307 0.73195,-0.24398 0.97593,-0.975921 0.24398,-0.73194 0.24398,-2.195821 V 46.279117 q 0,-1.504544 -0.24398,-2.195821 -0.24398,-0.731941 -0.97593,-0.975921 -0.69127,-0.284643 -2.07383,-0.325307 v -0.813267 q 0.85393,0.04066 2.23649,0.12199 1.38255,0.04066 2.72444,0 1.42322,-0.04066 3.21241,-0.08133 1.78919,-0.04066 2.92776,-0.04066 z m -1.01658,0.731941 q -1.87052,0 -2.43981,0.691277 -0.56928,0.691277 -0.56928,2.805771 v 20.331678 q 0,2.114494 0.56928,2.805771 0.60995,0.691277 2.48047,0.691277 4.43231,0 6.87211,-1.58587 2.4398,-1.626535 3.41572,-4.71695 0.97592,-3.090415 0.97592,-7.52272 0,-4.554296 -1.09791,-7.522721 -1.05725,-3.009088 -3.53771,-4.472969 -2.43981,-1.504544 -6.66879,-1.504544 z"
         id="path2417"
         style="font-size:12.7px;font-family:'Playfair Display';-inkscape-font-specification:'Playfair Display, Normal';fill:#1a1a1a;stroke:#1a1a1a;stroke-width:0.338323;stroke-miterlimit:3.9;stroke-dasharray:none" />
      <path
         d="m 403.05113,41.765484 9.92186,25.577251 q 0.60995,1.545207 1.38256,2.073831 0.7726,0.48796 1.42321,0.528624 v 0.813267 q -0.81326,-0.08133 -1.9925,-0.08133 -1.17924,-0.04066 -2.35848,-0.04066 -1.58587,0 -2.96842,0.04066 -1.38255,0 -2.23649,0.08133 V 69.94519 q 2.07384,-0.08133 2.64312,-0.691277 0.56929,-0.650614 -0.24398,-2.724445 l -7.56338,-20.209688 0.65061,-0.528623 -7.07542,18.379836 q -0.65062,1.626534 -0.77261,2.765108 -0.12199,1.097911 0.20332,1.748525 0.36597,0.650613 1.17924,0.935257 0.85393,0.284643 2.11449,0.325307 v 0.813267 q -1.13857,-0.08133 -2.39913,-0.08133 -1.21991,-0.04066 -2.27715,-0.04066 -1.01659,0 -1.74853,0.04066 -0.69127,0 -1.30124,0.08133 V 69.94519 q 0.81328,-0.203317 1.66721,-0.935257 0.85393,-0.772604 1.54521,-2.602455 l 9.55589,-24.641994 q 0.16265,0 0.32531,0 0.16265,0 0.3253,0 z m 4.96093,17.281926 v 0.813268 h -12.11768 l 0.40664,-0.813268 z"
         id="path2419"
         style="font-size:12.7px;font-family:'Playfair Display';-inkscape-font-specification:'Playfair Display, Normal';fill:#1a1a1a;stroke:#1a1a1a;stroke-width:0.338323;stroke-miterlimit:3.9;stroke-dasharray:none" />
      <path
         d="m 440.74603,41.399514 q 2.68378,0 4.39164,0.813267 1.74853,0.772604 3.09042,1.829851 0.81327,0.609951 1.2199,0.162654 0.4473,-0.48796 0.60995,-2.236485 h 0.93526 q -0.0813,1.504544 -0.12199,3.659702 -0.0407,2.155158 -0.0407,5.69287 h -0.93525 q -0.28465,-1.748524 -0.52863,-2.765108 -0.24398,-1.057247 -0.60995,-1.789188 -0.3253,-0.73194 -0.89459,-1.463881 -1.26057,-1.667197 -3.17174,-2.399138 -1.91118,-0.772603 -4.02568,-0.772603 -1.9925,0 -3.61903,1.016584 -1.58587,0.97592 -2.76511,2.846434 -1.13858,1.870515 -1.78919,4.513633 -0.60995,2.643118 -0.60995,5.93685 0,3.415722 0.69128,6.05884 0.69127,2.602454 1.91117,4.391642 1.26057,1.789188 2.92777,2.724445 1.70786,0.894594 3.6597,0.894594 1.82985,0 3.82235,-0.731941 1.99251,-0.73194 3.13108,-2.358474 0.8946,-1.179238 1.2199,-2.561792 0.36597,-1.382554 0.65062,-3.863018 h 0.93525 q 0,3.700365 0.0407,5.977513 0.0407,2.236484 0.12199,3.781692 h -0.93526 q -0.16265,-1.748524 -0.56929,-2.195821 -0.36597,-0.447297 -1.26056,0.12199 -1.50455,1.057247 -3.21241,1.870514 -1.66719,0.772604 -4.31031,0.772604 -3.86302,0 -6.79078,-1.748525 -2.8871,-1.748524 -4.51363,-5.042256 -1.58588,-3.293731 -1.58588,-7.929354 0,-4.554296 1.6672,-7.970017 1.6672,-3.415722 4.5543,-5.3269 2.92776,-1.911178 6.70945,-1.911178 z"
         id="path2421"
         style="font-size:12.7px;font-family:'Playfair Display';-inkscape-font-specification:'Playfair Display, Normal';fill:#1a1a1a;stroke:#1a1a1a;stroke-width:0.338323;stroke-miterlimit:3.9;stroke-dasharray:none" />
      <path
         d="m 475.83854,41.968801 v 0.813267 q -1.38255,0.04066 -2.1145,0.325307 -0.69127,0.24398 -0.93525,0.975921 -0.24398,0.691277 -0.24398,2.195821 v 20.169024 q 0,1.463881 0.24398,2.195821 0.24398,0.731941 0.93525,0.975921 0.73195,0.24398 2.1145,0.325307 v 0.813267 q -0.93526,-0.08133 -2.35848,-0.08133 -1.38255,-0.04066 -2.80577,-0.04066 -1.58587,0 -2.96842,0.04066 -1.38256,0 -2.23649,0.08133 V 69.94519 q 1.38256,-0.08133 2.07383,-0.325307 0.73195,-0.24398 0.97593,-0.975921 0.24398,-0.73194 0.24398,-2.195821 V 46.279117 q 0,-1.504544 -0.24398,-2.195821 -0.24398,-0.731941 -0.97593,-0.975921 -0.69127,-0.284643 -2.07383,-0.325307 v -0.813267 q 0.85393,0.04066 2.23649,0.08133 1.38255,0.04066 2.96842,0.04066 1.42322,0 2.80577,-0.04066 1.42322,-0.04066 2.35848,-0.08133 z"
         id="path2423"
         style="font-size:12.7px;font-family:'Playfair Display';-inkscape-font-specification:'Playfair Display, Normal';fill:#1a1a1a;stroke:#1a1a1a;stroke-width:0.338323;stroke-miterlimit:3.9;stroke-dasharray:none" />
      <path
         d="m 555.17278,41.968801 v 0.813267 q -1.38256,0.04066 -2.1145,0.406634 -0.69127,0.36597 -0.93525,1.179237 -0.24398,0.813267 -0.24398,2.317811 v 24.276024 q -0.24398,0 -0.48796,0 -0.20332,0 -0.4473,0 L 533.86518,44.571256 v 21.470252 q 0,1.46388 0.24398,2.317811 0.28464,0.813267 1.05725,1.179237 0.81326,0.325307 2.39913,0.406634 v 0.813267 q -0.73194,-0.08133 -1.91117,-0.08133 -1.17924,-0.04066 -2.23649,-0.04066 -1.01658,0 -2.07383,0.04066 -1.01658,0 -1.70786,0.08133 V 69.94519 q 1.38255,-0.08133 2.07383,-0.406634 0.73194,-0.36597 0.97592,-1.179237 0.24398,-0.853931 0.24398,-2.317811 V 46.279117 q 0,-1.504544 -0.24398,-2.195821 -0.24398,-0.731941 -0.97592,-0.975921 -0.69128,-0.284643 -2.07383,-0.325307 v -0.813267 q 0.69128,0.04066 1.70786,0.08133 1.05725,0.04066 2.07383,0.04066 0.8946,0 1.70786,-0.04066 0.81327,-0.04066 1.46388,-0.08133 l 14.35417,22.120866 V 46.68575 q 0,-1.504544 -0.28465,-2.317811 -0.24398,-0.813267 -1.05724,-1.179237 -0.77261,-0.36597 -2.35848,-0.406634 v -0.813267 q 0.73194,0.04066 1.91118,0.08133 1.2199,0.04066 2.23649,0.04066 1.05724,0 2.07383,-0.04066 1.05724,-0.04066 1.70786,-0.08133 z"
         id="path2427"
         style="font-size:12.7px;font-family:'Playfair Display';-inkscape-font-specification:'Playfair Display, Normal';fill:#1a1a1a;stroke:#1a1a1a;stroke-width:0.338323;stroke-miterlimit:3.9;stroke-dasharray:none" />
      <path
         d="m 162.57533,91.187759 v 1.060513 q -1.80287,0.05315 -2.75734,0.424211 -0.90143,0.318263 -1.21959,1.272603 -0.31816,0.901446 -0.31816,2.863405 V 123.1092 q 0,1.90893 0.31816,2.8634 0.31817,0.95447 1.21959,1.2726 0.95447,0.31827 2.75734,0.42422 v 1.06051 q -1.21959,-0.10598 -3.07549,-0.10598 -1.80287,-0.0532 -3.65877,-0.0532 -2.068,0 -3.87088,0.0532 -1.80287,0 -2.91641,0.10598 v -1.06051 q 1.80287,-0.10598 2.70431,-0.42422 0.95446,-0.31826 1.27262,-1.2726 0.31816,-0.95447 0.31816,-2.8634 V 93.945086 l 0.21209,0.159132 -12.99128,34.890892 h -0.84841 L 126.3588,94.581452 v 27.997518 q 0,1.90894 0.31817,3.02247 0.37118,1.06052 1.37867,1.53775 1.06051,0.42421 3.12851,0.53026 v 1.06051 q -0.95446,-0.10598 -2.49221,-0.10598 -1.53774,-0.0531 -2.91641,-0.0531 -1.32564,0 -2.70431,0.0531 -1.32564,0 -2.22707,0.10598 v -1.06051 q 1.80287,-0.10598 2.7043,-0.53026 0.95447,-0.47723 1.27262,-1.53775 0.31817,-1.11353 0.31817,-3.02247 V 96.808523 q 0,-1.961959 -0.31817,-2.863405 -0.31817,-0.954436 -1.27262,-1.272603 -0.90143,-0.371189 -2.7043,-0.424211 v -1.060513 q 0.90143,0.05315 2.22707,0.10598 1.37867,0.05315 2.70431,0.05315 1.16657,0 2.38616,-0.05315 1.27261,-0.05315 2.12102,-0.10598 l 12.03683,31.709349 -0.90144,0.42421 11.93077,-31.97446 q 0.63631,0 1.21959,0 0.63631,0 1.27262,0 1.8559,0 3.65877,-0.05315 1.8559,-0.05315 3.07549,-0.10598 z"
         id="path2430"
         style="font-size:16.561px;font-family:'Playfair Display';-inkscape-font-specification:'Playfair Display, Normal';fill:#1a1a1a;stroke:#1a1a1a;stroke-width:0.338323;stroke-miterlimit:3.9;stroke-dasharray:none" />
      <path
         d="m 193.33023,90.922646 12.93826,33.353144 q 0.79539,2.01495 1.80288,2.7043 1.00748,0.6363 1.85589,0.68933 v 1.06051 q -1.06051,-0.10598 -2.59825,-0.10598 -1.53775,-0.0532 -3.07549,-0.0532 -2.068,0 -3.87087,0.0532 -1.80288,0 -2.91642,0.10598 v -1.06051 q 2.70431,-0.10598 3.44667,-0.90145 0.74236,-0.84839 -0.31816,-3.5527 l -9.86278,-26.353757 0.84841,-0.689324 -9.22646,23.967591 q -0.84841,2.12103 -1.00749,3.60575 -0.15907,1.43167 0.26514,2.28009 0.47723,0.84843 1.53775,1.21958 1.11354,0.37119 2.75733,0.42422 v 1.06051 q -1.48472,-0.10598 -3.12851,-0.10598 -1.59077,-0.0532 -2.96944,-0.0532 -1.32564,0 -2.2801,0.0532 -0.90144,0 -1.69682,0.10598 v -1.06051 q 1.06051,-0.26512 2.17405,-1.21958 1.11354,-1.0075 2.01497,-3.39367 l 12.46103,-32.133524 q 0.21209,0 0.42421,0 0.21209,0 0.4242,0 z m 6.46913,22.535884 v 1.06052 h -15.80164 l 0.53025,-1.06052 z"
         id="path2432"
         style="font-size:16.561px;font-family:'Playfair Display';-inkscape-font-specification:'Playfair Display, Normal';fill:#1a1a1a;stroke:#1a1a1a;stroke-width:0.338323;stroke-miterlimit:3.9;stroke-dasharray:none" />
      <path
         d="m 258.33967,91.187759 v 1.060513 q -1.80287,0.05315 -2.75733,0.530256 -0.90144,0.477234 -1.21959,1.537747 -0.31817,1.060514 -0.31817,3.022472 v 31.656323 q -0.31816,0 -0.6363,0 -0.26515,0 -0.58329,0 L 230.55422,94.58142 v 27.99752 q 0,1.90894 0.31817,3.02247 0.37117,1.06052 1.37866,1.53775 1.06052,0.42421 3.12852,0.53026 v 1.06051 q -0.95447,-0.10598 -2.49221,-0.10598 -1.53774,-0.0532 -2.91641,-0.0532 -1.32564,0 -2.70431,0.0532 -1.32564,0 -2.22708,0.10598 v -1.06051 q 1.80288,-0.10598 2.70431,-0.53026 0.95446,-0.47723 1.27262,-1.53775 0.31816,-1.11353 0.31816,-3.02247 V 96.808491 q 0,-1.961959 -0.31816,-2.863405 -0.31817,-0.954436 -1.27262,-1.272603 -0.90143,-0.371189 -2.70431,-0.424211 v -1.060513 q 0.90144,0.05315 2.22708,0.10598 1.37867,0.05315 2.70431,0.05315 1.16656,0 2.22708,-0.05315 1.06051,-0.05315 1.90892,-0.10598 l 18.71806,28.845971 V 97.338747 q 0,-1.961958 -0.37118,-3.022472 -0.31817,-1.060513 -1.37867,-1.537747 -1.00749,-0.477234 -3.07549,-0.530256 v -1.060513 q 0.95446,0.05315 2.49221,0.10598 1.59077,0.05315 2.91641,0.05315 1.37867,0 2.70431,-0.05315 1.37866,-0.05315 2.22707,-0.10598 z"
         id="path2434"
         style="font-size:16.561px;font-family:'Playfair Display';-inkscape-font-specification:'Playfair Display, Normal';fill:#1a1a1a;stroke:#1a1a1a;stroke-width:0.338323;stroke-miterlimit:3.9;stroke-dasharray:none" />
      <path
         d="m 293.1245,90.445412 q 5.03744,0 8.80226,2.280094 3.81785,2.280093 5.88585,6.5752 2.12102,4.242054 2.12102,10.339984 0,5.93887 -2.17405,10.39304 -2.12102,4.45415 -5.93887,6.94636 -3.81785,2.49222 -8.74923,2.49222 -5.03744,0 -8.85529,-2.28013 -3.76482,-2.28009 -5.88585,-6.57517 -2.068,-4.29507 -2.068,-10.34002 0,-5.93886 2.17405,-10.393005 2.17406,-4.454174 5.93888,-6.946357 3.81785,-2.492216 8.74923,-2.492216 z m -0.21209,0.954468 q -3.44667,0 -5.9919,2.386139 -2.54523,2.38617 -3.97692,6.575201 -1.37867,4.189 -1.37867,9.70368 0,5.62071 1.53775,9.80974 1.59077,4.136 4.24205,6.4161 2.70431,2.2271 5.93887,2.2271 3.44667,0 5.9919,-2.38617 2.54523,-2.38614 3.9239,-6.57517 1.43169,-4.24205 1.43169,-9.70372 0,-5.67372 -1.59077,-9.80973 -1.53774,-4.136005 -4.18902,-6.363076 Q 296.2,91.39988 292.91241,91.39988 Z"
         id="path2436"
         style="font-size:16.561px;font-family:'Playfair Display';-inkscape-font-specification:'Playfair Display, Normal';fill:#1a1a1a;stroke:#1a1a1a;stroke-width:0.338323;stroke-miterlimit:3.9;stroke-dasharray:none" />
      <path
         d="m 339.52194,90.60448 q 2.65128,0 4.02995,0.636301 1.37866,0.583279 2.43918,1.325657 0.63631,0.37119 1.00748,0.583279 0.42421,0.159132 0.79539,0.159132 0.53026,0 0.74236,-0.583279 0.26511,-0.583279 0.4242,-1.749837 h 1.21959 q -0.053,0.901445 -0.15906,2.174048 -0.053,1.219581 -0.10605,3.287585 0,2.014981 0,5.355584 h -1.21959 q -0.15907,-2.545234 -1.11354,-4.87835 -0.95446,-2.333116 -2.81036,-3.817841 -1.80287,-1.484725 -4.77231,-1.484725 -2.81036,0 -4.66625,1.696815 -1.80288,1.696814 -1.80288,4.454174 0,2.386137 1.21959,4.029927 1.21959,1.59077 3.23457,2.91643 2.068,1.2726 4.45415,2.75733 2.75734,1.69681 4.87836,3.39363 2.17406,1.64379 3.39365,3.65877 1.27261,2.01498 1.27261,4.87835 0,3.39367 -1.53774,5.62074 -1.53775,2.22707 -4.08298,3.3406 -2.54523,1.11357 -5.62072,1.11357 -2.81036,0 -4.45415,-0.63633 -1.6438,-0.6363 -2.81036,-1.32563 -1.16657,-0.74238 -1.80287,-0.74238 -0.53026,0 -0.79539,0.58332 -0.21209,0.58327 -0.37118,1.74983 H 329.288 q 0.10604,-1.11353 0.10604,-2.59826 0.053,-1.53775 0.053,-3.97694 0.053,-2.43916 0.053,-6.15095 h 1.21959 q 0.21209,3.18153 1.16657,5.93886 1.00748,2.75733 3.02246,4.45414 2.068,1.64383 5.46164,1.64383 1.74985,0 3.28759,-0.68936 1.59077,-0.74234 2.59826,-2.28009 1.00749,-1.59077 1.00749,-4.08299 0,-2.17404 -1.06052,-3.76481 -1.00748,-1.6438 -2.86338,-3.02248 -1.8559,-1.43167 -4.34811,-2.91639 -2.4922,-1.53775 -4.66625,-3.12852 -2.17406,-1.59077 -3.4997,-3.65877 -1.27262,-2.12103 -1.27262,-5.090478 0,-3.128484 1.37867,-5.143466 1.4317,-2.068004 3.7118,-3.022472 2.2801,-1.00749 4.87836,-1.00749 z"
         id="path2438"
         style="font-size:16.561px;font-family:'Playfair Display';-inkscape-font-specification:'Playfair Display, Normal';fill:#1a1a1a;stroke:#1a1a1a;stroke-width:0.338323;stroke-miterlimit:3.9;stroke-dasharray:none" />
      <path
         d="m 409.675,91.187759 q -0.21196,1.855913 -0.31826,3.605751 -0.0532,1.749837 -0.0532,2.651282 0,0.954469 0.0532,1.855914 0.0532,0.848394 0.10598,1.431674 h -1.21961 q -0.31827,-3.12852 -0.90142,-4.93138 -0.58328,-1.855914 -2.01498,-2.59826 -1.37868,-0.795369 -4.18903,-0.795369 h -4.40112 q -1.80289,0 -2.75733,0.318263 -0.90144,0.265112 -1.21961,1.21958 -0.31826,0.901446 -0.31826,2.863405 v 26.300701 q 0,1.90894 0.31826,2.86341 0.31826,0.95447 1.21961,1.2726 0.95444,0.26511 2.75733,0.26511 h 3.87087 q 3.3406,0 5.03745,-0.90144 1.74984,-0.90145 2.49218,-2.9164 0.7954,-2.068 1.16656,-5.56771 h 1.21961 q -0.15913,1.43171 -0.15913,3.81784 0,1.0075 0.0532,2.91643 0.10598,1.85588 0.31826,3.87087 -2.7043,-0.10599 -6.09793,-0.10599 -3.39366,-0.0532 -6.04494,-0.0532 -1.16656,0 -3.02244,0 -1.8029,0 -3.92392,0.0532 -2.12104,0 -4.29509,0.0531 -2.17405,0 -4.136,0.0532 v -1.06052 q 1.80288,-0.10598 2.7043,-0.42421 0.95447,-0.31826 1.27263,-1.2726 0.31827,-0.95447 0.31827,-2.86341 V 96.808907 q 0,-1.961959 -0.31827,-2.863405 -0.31826,-0.954436 -1.27263,-1.272602 -0.90142,-0.37119 -2.7043,-0.424212 v -1.060513 q 1.96195,0.05315 4.136,0.105981 2.17405,0 4.29509,0.05315 2.12102,0 3.92392,0 1.85588,0 3.02244,0 2.43919,0 5.51468,0 3.12852,-0.05315 5.56768,-0.159131 z m -9.1204,18.134771 q 0,0 0,0.53025 0,0.53026 0,0.53026 h -9.70369 q 0,0 0,-0.53026 0,-0.53025 0,-0.53025 z m 1.53774,-6.99938 q -0.21196,3.02247 -0.21196,4.61324 0.0532,1.59077 0.0532,2.91639 0,1.32566 0.0531,2.91643 0.0532,1.59077 0.26511,4.61324 h -1.21958 q -0.21196,-1.69684 -0.53025,-3.28761 -0.26512,-1.6438 -1.27264,-2.65129 -0.95443,-1.06051 -3.28758,-1.06051 v -1.06051 q 1.74987,0 2.65128,-0.68933 0.95447,-0.74234 1.37868,-1.85588 0.42421,-1.11354 0.58328,-2.28013 0.15913,-1.21958 0.31826,-2.17404 z"
         id="path2440"
         style="font-size:16.561px;font-family:'Playfair Display';-inkscape-font-specification:'Playfair Display, Normal';fill:#1a1a1a;stroke:#1a1a1a;stroke-width:0.338323;stroke-miterlimit:3.9;stroke-dasharray:none" />
      <path
         d="m 456.60269,91.187759 q -0.21196,2.014981 -0.31826,3.923917 -0.0531,1.855882 -0.0531,2.863373 0,1.272603 0.0531,2.386171 0.0532,1.11353 0.10598,1.96193 h -1.21961 q -0.37116,-3.7118 -1.00749,-5.832826 -0.63631,-2.174049 -2.22708,-3.128517 -1.59076,-0.954436 -4.93137,-0.954436 h -2.86341 v 30.171569 q 0,2.12103 0.37119,3.18154 0.42421,1.06054 1.59077,1.4317 1.16656,0.37119 3.39363,0.47724 v 1.06051 q -1.37865,-0.10598 -3.49967,-0.10598 -2.12103,-0.0532 -4.29508,-0.0532 -2.38617,0 -4.50719,0.0532 -2.06801,0 -3.34061,0.10598 v -1.06051 q 2.22707,-0.10598 3.39363,-0.47724 1.16659,-0.37116 1.53775,-1.4317 0.42421,-1.06051 0.42421,-3.18154 V 92.407371 h -2.86338 q -3.28761,0 -4.9314,0.954436 -1.59077,0.954468 -2.22707,3.128517 -0.63631,2.121026 -1.0075,5.832826 h -1.21958 q 0.10598,-0.8484 0.10598,-1.96193 0.0532,-1.113568 0.0532,-2.386171 0,-1.007491 -0.10599,-2.863373 -0.0532,-1.908936 -0.26511,-3.923917 2.22707,0.05315 4.82533,0.10598 2.65129,0.05315 5.30257,0.05315 2.65128,0 4.82533,0 2.17405,0 4.77231,0 2.65128,0 5.30257,-0.05315 2.65128,-0.05315 4.82533,-0.10598 z"
         id="path2442"
         style="font-size:16.561px;font-family:'Playfair Display';-inkscape-font-specification:'Playfair Display, Normal';fill:#1a1a1a;stroke:#1a1a1a;stroke-width:0.338323;stroke-miterlimit:3.9;stroke-dasharray:none" />
      <path
         d="m 517.79432,91.187759 q 1.11356,0.05315 2.91642,0.10598 1.80286,0.05315 3.55273,0.05315 2.49219,0 4.77231,-0.05315 2.28009,-0.05315 3.23456,-0.05315 4.29508,0 7.10543,1.219612 2.8634,1.219581 4.24205,3.340607 1.4317,2.068004 1.4317,4.666262 0,1.59077 -0.6363,3.39363 -0.63633,1.80289 -2.2271,3.39366 -1.53772,1.59077 -4.24205,2.65129 -2.70431,1.00745 -6.84028,1.00745 h -5.09048 v -1.06051 h 4.56022 q 3.76482,0 5.72674,-1.16656 2.01499,-1.21958 2.70431,-3.18154 0.74238,-2.01498 0.74238,-4.45414 0,-4.189029 -2.01498,-6.469122 -1.96196,-2.333148 -6.78729,-2.333148 -2.43917,0 -3.18154,0.901445 -0.74235,0.901446 -0.74235,3.658774 V 123.109 q 0,1.90894 0.31826,2.86341 0.31827,0.95447 1.21962,1.2726 0.95446,0.31827 2.75732,0.42421 v 1.06052 q -1.21958,-0.10598 -3.07549,-0.10598 -1.80286,-0.0532 -3.65877,-0.0532 -2.06801,0 -3.87087,0.0532 -1.80286,0 -2.91643,0.10598 v -1.06052 q 1.8029,-0.10598 2.70434,-0.42421 0.95444,-0.31826 1.27261,-1.2726 0.31826,-0.95447 0.31826,-2.86341 V 96.808299 q 0,-1.961959 -0.31826,-2.863405 -0.31827,-0.954436 -1.27261,-1.272603 -0.90144,-0.371189 -2.70434,-0.424211 z m 8.43108,18.824121 q 2.8634,0.10598 4.5072,0.26511 1.64379,0.10599 2.65128,0.21197 1.06051,0.10598 2.01498,0.26511 3.5527,0.58328 5.09044,2.17405 1.59077,1.53774 2.33315,4.82533 l 1.32563,5.40864 q 0.53025,2.33312 1.06051,3.39363 0.58328,1.00749 1.74984,0.95447 0.90144,-0.0531 1.48472,-0.58328 0.6363,-0.53026 1.32566,-1.4317 l 0.79537,0.58328 q -1.11354,1.64379 -2.33312,2.54523 -1.16656,0.84843 -3.3406,0.84843 -1.96196,0 -3.44669,-1.16659 -1.48472,-1.16656 -2.22707,-4.56019 l -1.16656,-5.30257 q -0.47723,-2.28012 -1.11353,-3.92391 -0.58331,-1.69682 -1.69685,-2.65129 -1.06051,-0.95446 -3.18154,-0.95446 h -5.72674 z"
         id="path2446"
         style="font-size:16.561px;font-family:'Playfair Display';-inkscape-font-specification:'Playfair Display, Normal';fill:#1a1a1a;stroke:#1a1a1a;stroke-width:0.338323;stroke-miterlimit:3.9;stroke-dasharray:none" />
      <path
         d="m 591.18194,91.187759 q -0.21196,1.855913 -0.31826,3.605751 -0.0532,1.749837 -0.0532,2.651282 0,0.954469 0.0532,1.855914 0.0531,0.848394 0.10598,1.431674 h -1.21961 q -0.31827,-3.12852 -0.90142,-4.93138 -0.58328,-1.855914 -2.01498,-2.59826 -1.37868,-0.795369 -4.18903,-0.795369 h -4.40112 q -1.80289,0 -2.75736,0.318263 -0.90141,0.265112 -1.21958,1.21958 -0.31826,0.901446 -0.31826,2.863405 v 26.300701 q 0,1.90894 0.31826,2.86341 0.31826,0.95447 1.21958,1.2726 0.95447,0.26511 2.75736,0.26511 h 3.87086 q 3.34061,0 5.03742,-0.90144 1.74987,-0.90145 2.49222,-2.9164 0.7954,-2.068 1.16656,-5.56771 h 1.21961 q -0.15913,1.43171 -0.15913,3.81784 0,1.0075 0.0531,2.91643 0.10598,1.85588 0.31826,3.87087 -2.7043,-0.10599 -6.09793,-0.10599 -3.39366,-0.0532 -6.04495,-0.0532 -1.16655,0 -3.02247,0 -1.80286,0 -3.92388,0.0532 -2.12103,0 -4.29508,0.0531 -2.17405,0 -4.13601,0.0532 v -1.06052 q 1.8029,-0.10598 2.70431,-0.42421 0.95447,-0.31826 1.27263,-1.2726 0.31827,-0.95447 0.31827,-2.86341 V 96.808907 q 0,-1.961959 -0.31827,-2.863405 -0.31826,-0.954436 -1.27263,-1.272602 -0.90141,-0.37119 -2.70431,-0.424212 v -1.060513 q 1.96196,0.05315 4.13601,0.105981 2.17405,0 4.29508,0.05315 2.12102,0 3.92388,0 1.85592,0 3.02247,0 2.4392,0 5.51469,0 3.12849,-0.05315 5.56768,-0.159131 z m -9.12041,18.134771 q 0,0 0,0.53025 0,0.53026 0,0.53026 h -9.70368 q 0,0 0,-0.53026 0,-0.53025 0,-0.53025 z m 1.53775,-6.99938 q -0.21196,3.02247 -0.21196,4.61324 0.0531,1.59077 0.0531,2.91639 0,1.32566 0.0531,2.91643 0.0532,1.59077 0.26511,4.61324 h -1.21958 q -0.21196,-1.69684 -0.53026,-3.28761 -0.26511,-1.6438 -1.27263,-2.65129 -0.95444,-1.06051 -3.28758,-1.06051 v -1.06051 q 1.74983,0 2.65128,-0.68933 0.95447,-0.74234 1.37868,-1.85588 0.42421,-1.11354 0.58328,-2.28013 0.15913,-1.21958 0.31826,-2.17404 z"
         id="path2448"
         style="font-size:16.561px;font-family:'Playfair Display';-inkscape-font-specification:'Playfair Display, Normal';fill:#1a1a1a;stroke:#1a1a1a;stroke-width:0.338323;stroke-miterlimit:3.9;stroke-dasharray:none" />
      <path
         d="m 623.31547,90.922646 12.93824,33.353144 q 0.79541,2.01495 1.8029,2.7043 1.00749,0.6363 1.85588,0.68933 v 1.06051 q -1.06051,-0.10598 -2.59826,-0.10598 -1.53775,-0.0532 -3.0755,-0.0532 -2.068,0 -3.87086,0.0532 -1.80286,0 -2.91639,0.10598 v -1.06051 q 2.7043,-0.10598 3.44665,-0.90145 0.74234,-0.84839 -0.31827,-3.5527 l -9.86275,-26.353757 0.84839,-0.689324 -9.22645,23.967591 q -0.84842,2.12103 -1.00749,3.60575 -0.15913,1.43167 0.26511,2.28009 0.47724,0.84843 1.53775,1.21958 1.11354,0.37119 2.75733,0.42422 v 1.06051 q -1.48473,-0.10598 -3.12852,-0.10598 -1.59077,-0.0532 -2.96945,-0.0532 -1.32562,0 -2.28009,0.0532 -0.90145,0 -1.69682,0.10598 v -1.06051 q 1.06052,-0.26512 2.17405,-1.21958 1.11354,-1.0075 2.01498,-3.39367 l 12.46102,-32.133524 q 0.21228,0 0.42421,0 0.21196,0 0.42421,0 z m 6.46912,22.535884 v 1.06052 h -15.80165 l 0.53026,-1.06052 z"
         id="path2450"
         style="font-size:16.561px;font-family:'Playfair Display';-inkscape-font-specification:'Playfair Display, Normal';fill:#1a1a1a;stroke:#1a1a1a;stroke-width:0.338323;stroke-miterlimit:3.9;stroke-dasharray:none" />
      <path
         d="m 666.37226,90.60448 q 2.65128,0 4.02996,0.636301 1.37868,0.583279 2.4392,1.325657 0.6363,0.37119 1.00749,0.583279 0.42418,0.159132 0.79537,0.159132 0.53025,0 0.74234,-0.583279 0.26512,-0.583279 0.42421,-1.749837 h 1.21962 q -0.0531,0.901445 -0.15913,2.174048 -0.0531,1.219581 -0.10599,3.287585 0,2.014981 0,5.355584 h -1.21958 q -0.15913,-2.545234 -1.11353,-4.87835 -0.95447,-2.333116 -2.81038,-3.817841 -1.80286,-1.484725 -4.77231,-1.484725 -2.81035,0 -4.66623,1.696815 -1.8029,1.696814 -1.8029,4.454174 0,2.386137 1.21958,4.029927 1.21962,1.59077 3.2346,2.91643 2.06797,1.2726 4.45414,2.75733 2.75733,1.69681 4.87835,3.39363 2.17405,1.64379 3.39367,3.65877 1.2726,2.01498 1.2726,4.87835 0,3.39367 -1.53775,5.62074 -1.53775,2.22707 -4.08298,3.3406 -2.54521,1.11357 -5.6207,1.11357 -2.81039,0 -4.45418,-0.63633 -1.64379,-0.6363 -2.81035,-1.32563 -1.16656,-0.74238 -1.80286,-0.74238 -0.53025,0 -0.7954,0.58332 -0.21196,0.58327 -0.37119,1.74983 h -1.21958 q 0.10598,-1.11353 0.10598,-2.59826 0.0531,-1.53775 0.0531,-3.97694 0.0532,-2.43916 0.0532,-6.15095 h 1.21958 q 0.21197,3.18153 1.16656,5.93886 1.00749,2.75733 3.02247,4.45414 2.06801,1.64383 5.46164,1.64383 1.74983,0 3.28758,-0.68936 1.59077,-0.74234 2.59826,-2.28009 1.00749,-1.59077 1.00749,-4.08299 0,-2.17404 -1.06051,-3.76481 -1.00749,-1.6438 -2.86337,-3.02248 -1.85592,-1.43167 -4.34813,-2.91639 -2.49219,-1.53775 -4.66623,-3.12852 -2.17405,-1.59077 -3.49971,-3.65877 -1.2726,-2.12103 -1.2726,-5.090478 0,-3.128484 1.37864,-5.143466 1.43171,-2.068004 3.7118,-3.022472 2.28013,-1.00749 4.87835,-1.00749 z"
         id="path2452"
         style="font-size:16.561px;font-family:'Playfair Display';-inkscape-font-specification:'Playfair Display, Normal';fill:#1a1a1a;stroke:#1a1a1a;stroke-width:0.338323;stroke-miterlimit:3.9;stroke-dasharray:none" />
    </g>
    <path
       id="path2275"
       style="fill:#7eb6ca;fill-opacity:0.996078;stroke-width:0.314171"
       d="m 94.912526,6.0024605 -0.38371,3.9764842 C 93.078219,25.006019 86.661949,32.306996 61.904698,47.098632 30.319346,65.969826 19.846877,77.975825 17.735647,97.735745 c -2.267795,21.225285 13.886529,43.364275 34.270184,46.964715 4.485152,0.79224 4.901703,0.28471 1.099606,-1.33961 C 30.489637,133.69895 20.151373,112.71336 28.444251,93.303316 33.408645,81.683779 42.058662,73.310018 61.902211,60.914176 84.400484,46.859999 92.312255,39.021865 96.102643,27.032663 98.40027,19.765065 98.245637,10.98521 95.753827,7.2598546 Z m 6.120854,31.3119225 c -0.3659,0.132106 -0.93604,1.291735 -1.808849,3.428344 -1.99415,4.881675 -5.747227,10.250685 -10.502635,15.024776 -5.266361,5.287038 -10.368892,8.908978 -21.949579,15.57956 -13.585046,7.825097 -20.145811,13.085369 -25.865416,20.738732 -5.723428,7.658487 -8.482545,19.250765 -5.813579,24.426975 0.458437,0.88908 0.842475,0.63945 1.209225,-0.78567 3.003623,-11.67172 10.309753,-18.757553 29.929112,-29.028023 3.443114,-1.802422 7.412289,-3.927603 8.820032,-4.722299 17.869944,-10.088156 26.609209,-23.223719 26.588799,-39.96419 -0.005,-3.338998 -0.1366,-4.868062 -0.60711,-4.698205 z m -8.142331,39.625322 c -0.337607,0.03759 -1.068649,1.003815 -2.33123,2.912614 -4.990464,7.544621 -9.672137,11.270127 -25.044058,19.932301 -11.455302,6.45515 -17.198033,11.83345 -19.755342,18.49965 -2.455971,6.40201 -1.778384,12.64104 1.757356,16.17678 1.369922,1.36992 1.590034,1.10476 1.027347,-1.2408 -2.309586,-9.62745 3.394497,-16.51629 22.15386,-26.75333 C 83.933,99.245058 90.93756,90.752433 92.861994,79.594856 c 0.310901,-1.802565 0.366685,-2.692839 0.02909,-2.655151 z" />
  </g>
</svg>
