<?xml version="1.0" encoding="UTF-8" standalone="no"?>
<!-- Created with Inkscape (http://www.inkscape.org/) -->

<svg
   width="96.0px"
   height="96.0px"
   viewBox="0 0 96.0 96.0"
   version="1.1"
   id="SVGRoot"
   sodipodi:docname="logo-completo-white.svg"
   inkscape:version="1.2.2 (b0a8486541, 2022-12-01)"
   xmlns:inkscape="http://www.inkscape.org/namespaces/inkscape"
   xmlns:sodipodi="http://sodipodi.sourceforge.net/DTD/sodipodi-0.dtd"
   xmlns="http://www.w3.org/2000/svg"
   xmlns:svg="http://www.w3.org/2000/svg">
  <sodipodi:namedview
     id="namedview211"
     pagecolor="#ffffff"
     bordercolor="#000000"
     borderopacity="0.25"
     inkscape:showpageshadow="2"
     inkscape:pageopacity="0.0"
     inkscape:pagecheckerboard="0"
     inkscape:deskcolor="#d1d1d1"
     inkscape:document-units="px"
     showgrid="true"
     inkscape:zoom="6.7277215"
     inkscape:cx="51.354682"
     inkscape:cy="44.59162"
     inkscape:window-width="1920"
     inkscape:window-height="1139"
     inkscape:window-x="0"
     inkscape:window-y="35"
     inkscape:window-maximized="1"
     inkscape:current-layer="layer1">
    <inkscape:grid
       type="xygrid"
       id="grid334" />
  </sodipodi:namedview>
  <defs
     id="defs206" />
  <g
     inkscape:label="Capa 1"
     inkscape:groupmode="layer"
     id="layer1">
    <path
       d="m 64.003044,73.265054 q -0.03429,0.300248 -0.05149,0.583334 -0.0086,0.283086 -0.0086,0.428921 0,0.154413 0.0086,0.300247 0.0086,0.137252 0.01715,0.231614 h -0.197308 q -0.05149,-0.506127 -0.145829,-0.797792 -0.09436,-0.300247 -0.325981,-0.420343 -0.223041,-0.128674 -0.677696,-0.128674 h -0.712008 q -0.291669,0 -0.446077,0.05149 -0.145834,0.04289 -0.197307,0.197302 -0.05149,0.145835 -0.05149,0.463238 v 4.254894 q 0,0.308825 0.05149,0.463238 0.05149,0.154413 0.197307,0.20588 0.154408,0.04289 0.446077,0.04289 h 0.626224 q 0.540439,0 0.814952,-0.145835 0.283087,-0.145835 0.403183,-0.471811 0.128678,-0.334559 0.188724,-0.900737 h 0.197307 q -0.02574,0.231619 -0.02574,0.617646 0,0.16299 0.0086,0.471815 0.01714,0.300243 0.05149,0.626224 -0.437499,-0.01715 -0.986516,-0.01715 -0.549022,-0.0086 -0.977943,-0.0086 -0.188725,0 -0.488967,0 -0.291669,0 -0.634806,0.0086 -0.343139,0 -0.694854,0.0086 -0.351715,0 -0.669117,0.0086 v -0.171569 q 0.291669,-0.01714 0.437498,-0.06863 0.154413,-0.05149 0.205885,-0.20588 0.05149,-0.154413 0.05149,-0.463238 v -4.254895 q 0,-0.317403 -0.05149,-0.463238 -0.05149,-0.154407 -0.205885,-0.20588 -0.145829,-0.06005 -0.437498,-0.06863 v -0.171569 q 0.317402,0.0086 0.669117,0.01715 0.351715,0 0.694854,0.0086 0.343137,0 0.634806,0 0.300242,0 0.488967,0 0.394609,0 0.892159,0 0.506127,-0.0086 0.900731,-0.02575 z m -1.475487,2.93382 q 0,0 0,0.08578 0,0.08578 0,0.08578 h -1.56985 q 0,0 0,-0.08578 0,-0.08578 0,-0.08578 z m 0.248775,-1.132351 q -0.03429,0.488971 -0.03429,0.746324 0.0086,0.257353 0.0086,0.471811 0,0.214463 0.0086,0.471816 0.0086,0.257352 0.04289,0.746324 H 62.60483 Q 62.57054,77.228284 62.51905,76.970932 62.47616,76.705001 62.313165,76.54201 62.158757,76.370442 61.781304,76.370442 v -0.171568 q 0.283091,0 0.428921,-0.111518 0.154412,-0.120096 0.223041,-0.300243 0.06863,-0.180146 0.09436,-0.368875 0.02574,-0.197303 0.05149,-0.351715 z"
       id="path356"
       style="font-size:16.561px;font-family:'Playfair Display';-inkscape-font-specification:'Playfair Display, Normal';stroke-width:0.270186;stroke:#ffffff;fill:#ffffff" />
    <path
       id="path2275"
       style="fill:#ffffff;fill-opacity:0.996078;stroke-width:0.101259;stroke:#ffffff"
       d="m 60.367228,16.54131 -0.123669,1.281645 c -0.467537,4.84331 -2.535538,7.196458 -10.51494,11.963888 -10.180143,6.082291 -13.555482,9.951895 -14.235942,16.320634 -0.730926,6.841027 4.475709,13.976553 11.045479,15.136996 1.445586,0.255341 1.579846,0.09176 0.354407,-0.431765 -7.289204,-3.114085 -10.621286,-9.877862 -7.948439,-16.133831 1.600049,-3.745044 4.388002,-6.443952 10.783688,-10.439206 7.251326,-4.529743 9.801335,-7.056017 11.022999,-10.92021 0.740539,-2.342383 0.690702,-5.172184 -0.112424,-6.372885 z m 1.972789,10.092012 c -0.117932,0.04258 -0.301693,0.416333 -0.583001,1.104977 -0.642726,1.573392 -1.852368,3.303854 -3.385063,4.842569 -1.697376,1.704046 -3.341955,2.871416 -7.074476,5.021382 -4.378539,2.522077 -6.493112,4.217491 -8.336572,6.684213 -1.844696,2.468375 -2.733974,6.204631 -1.873751,7.872958 0.147757,0.286554 0.271538,0.206096 0.389741,-0.253223 0.968087,-3.76187 3.322894,-6.045672 9.646325,-9.355904 1.109735,-0.580931 2.389026,-1.265891 2.842748,-1.522024 5.759588,-3.25147 8.576302,-7.48514 8.569722,-12.880689 -0.0014,-1.076179 -0.04402,-1.569002 -0.195673,-1.514259 z m -2.62432,12.771467 c -0.108815,0.01213 -0.344432,0.323539 -0.751367,0.938753 -1.608459,2.431675 -3.117387,3.632428 -8.071849,6.424298 -3.692109,2.080532 -5.543022,3.813988 -6.36726,5.962545 -0.791569,2.063407 -0.57318,4.074276 0.566408,5.213869 0.44153,0.441536 0.512476,0.356067 0.331116,-0.399913 -0.74439,-3.102984 1.094069,-5.323302 7.14032,-8.622757 4.265402,-2.327651 6.523011,-5.064871 7.143267,-8.661024 0.100205,-0.580972 0.118184,-0.867915 0.0094,-0.855771 z" />
    <path
       d="m 64.650098,65.210376 q 0.624955,0 1.092026,0.282874 0.473649,0.282874 0.730209,0.81573 0.263139,0.526277 0.263139,1.282801 0,0.736788 -0.269717,1.289379 -0.263139,0.552591 -0.736788,0.861779 -0.47365,0.309188 -1.085447,0.309188 -0.624954,0 -1.098604,-0.282874 -0.467071,-0.282874 -0.730209,-0.81573 -0.256561,-0.532856 -0.256561,-1.282801 0,-0.736788 0.269718,-1.289379 0.269717,-0.552591 0.736788,-0.861779 0.473649,-0.309188 1.085446,-0.309188 z m -0.02631,0.118412 q -0.427601,0 -0.743367,0.296031 -0.315766,0.296031 -0.493385,0.81573 -0.17104,0.519699 -0.17104,1.203859 0,0.697318 0.190776,1.217016 0.197353,0.513121 0.526277,0.795995 0.335501,0.276295 0.736788,0.276295 0.4276,0 0.743366,-0.296031 0.315767,-0.296031 0.486807,-0.815729 0.177618,-0.526278 0.177618,-1.20386 0,-0.703895 -0.197354,-1.217016 -0.190775,-0.51312 -0.519698,-0.789416 -0.328924,-0.282874 -0.736788,-0.282874 z m 0.717052,-1.460419 q 0.13157,-0.08552 0.236825,-0.05921 0.111834,0.01974 0.164462,0.105255 0.05263,0.08552 0.02631,0.190776 -0.02631,0.09868 -0.164462,0.190775 -0.138148,0.08552 -0.322345,0.157884 -0.177618,0.06578 -0.421022,0.164461 -0.236824,0.0921 -0.578905,0.263139 l -0.04605,-0.08552 q 0.30261,-0.230246 0.493385,-0.401287 0.197354,-0.177618 0.335502,-0.309187 0.138148,-0.13157 0.276295,-0.21709 z"
       id="path2425"
       style="font-size:12.7px;font-family:'Playfair Display';-inkscape-font-specification:'Playfair Display, Normal';stroke-width:0.207196;stroke:#ffffff;fill:#ffffff" />
    <path
       d="m 26.15291,65.302475 q -0.02631,0.249981 -0.03947,0.486806 -0.0066,0.230246 -0.0066,0.355237 0,0.157883 0.0066,0.296031 0.0066,0.138148 0.01316,0.243403 h -0.151305 q -0.04605,-0.460492 -0.12499,-0.723631 -0.07894,-0.269717 -0.276296,-0.388129 -0.197354,-0.118413 -0.611797,-0.118413 h -0.414444 q -0.223667,0 -0.34208,0.03947 -0.111834,0.03289 -0.151304,0.151305 -0.03947,0.111834 -0.03947,0.355237 v 3.262919 q 0,0.236824 0.04605,0.355237 0.05263,0.118412 0.197354,0.157883 0.144726,0.03947 0.421022,0.05263 v 0.131569 q -0.17104,-0.01316 -0.434179,-0.01316 -0.263139,-0.0066 -0.532856,-0.0066 -0.25656,0 -0.480228,0.0066 -0.223667,0 -0.361815,0.01316 V 69.82846 q 0.223668,-0.01316 0.335502,-0.05263 0.118412,-0.03947 0.157883,-0.157883 0.03947,-0.118413 0.03947,-0.355237 v -3.262919 q 0,-0.243403 -0.03947,-0.355237 -0.03947,-0.118413 -0.157883,-0.157883 -0.111834,-0.04605 -0.335502,-0.05263 v -0.131569 q 0.243403,0.0066 0.51312,0.01316 0.269717,0 0.532856,0.0066 0.263138,0 0.486806,0 0.230246,0 0.374973,0 0.302609,0 0.68416,0 0.38813,-0.0066 0.690739,-0.01973 z m -1.019662,2.315619 q 0,0 0,0.06579 0,0.06578 0,0.06578 h -1.315693 q 0,0 0,-0.06578 0,-0.06579 0,-0.06579 z m 0.124991,-0.868357 q -0.02631,0.374973 -0.02631,0.572326 0.0066,0.197354 0.0066,0.361816 0,0.164462 0.0066,0.361816 0.0066,0.197354 0.03289,0.572326 h -0.151305 q -0.02631,-0.210511 -0.06578,-0.407865 -0.03289,-0.203932 -0.157883,-0.328923 -0.118413,-0.131569 -0.407865,-0.131569 v -0.13157 q 0.217089,0 0.328923,-0.08552 0.118412,-0.0921 0.17104,-0.230246 0.05263,-0.138148 0.07236,-0.282874 0.01974,-0.151305 0.03947,-0.269717 z"
       id="path2411"
       style="font-size:12.7px;font-family:'Playfair Display';-inkscape-font-specification:'Playfair Display, Normal';stroke-width:0.207196;stroke:#ffffff;fill:#ffffff" />
    <path
       d="m 32.126161,65.302475 v 0.131569 q -0.223668,0.0066 -0.342081,0.06579 -0.111834,0.05921 -0.151304,0.190775 -0.03947,0.131569 -0.03947,0.374973 V 68.0457 q 0,0.460492 -0.05921,0.802572 -0.05921,0.342081 -0.210511,0.592062 -0.164462,0.276296 -0.480228,0.447336 -0.315767,0.164462 -0.723631,0.164462 -0.315767,0 -0.605219,-0.07894 -0.282874,-0.07236 -0.499964,-0.276296 -0.190775,-0.184197 -0.302609,-0.388129 -0.105255,-0.203932 -0.144726,-0.499963 -0.03947,-0.296031 -0.03947,-0.743367 v -2.065638 q 0,-0.243403 -0.03947,-0.355237 -0.03947,-0.118413 -0.157883,-0.157883 -0.111834,-0.04605 -0.335502,-0.05263 V 65.30248 q 0.138148,0.0066 0.361816,0.01316 0.223668,0.0066 0.480228,0.0066 0.230246,0 0.453914,-0.0066 0.230246,-0.0066 0.381551,-0.01316 v 0.131569 q -0.223668,0.0066 -0.34208,0.05263 -0.111834,0.03947 -0.151305,0.157883 -0.03947,0.111834 -0.03947,0.355237 v 2.177472 q 0,0.335502 0.03289,0.638111 0.03289,0.296031 0.131569,0.526277 0.105255,0.223668 0.315766,0.355237 0.210511,0.124991 0.55917,0.124991 0.499963,0 0.76968,-0.217089 0.276296,-0.223668 0.381551,-0.611797 Q 31.442,68.604864 31.442,68.118058 v -2.052481 q 0,-0.243404 -0.05921,-0.374973 -0.05263,-0.131569 -0.184197,-0.190775 -0.131569,-0.05921 -0.355237,-0.06579 V 65.30247 q 0.118412,0.0066 0.309188,0.01316 0.197354,0.0066 0.361815,0.0066 0.17104,0 0.335502,-0.0066 0.17104,-0.0066 0.276296,-0.01316 z"
       id="path2413"
       style="font-size:12.7px;font-family:'Playfair Display';-inkscape-font-specification:'Playfair Display, Normal';stroke-width:0.207196;stroke:#ffffff;fill:#ffffff" />
    <path
       d="m 38.349387,65.302475 v 0.131569 q -0.223668,0.0066 -0.34208,0.06579 -0.111834,0.05921 -0.151305,0.190775 -0.03947,0.131569 -0.03947,0.374973 v 3.927343 q -0.03947,0 -0.07894,0 -0.03289,0 -0.07236,0 l -2.762956,-4.269424 v 3.47343 q 0,0.236825 0.03947,0.374973 0.04605,0.131569 0.17104,0.190775 0.13157,0.05263 0.38813,0.06578 v 0.131569 q -0.118413,-0.01316 -0.309188,-0.01316 -0.190776,-0.0066 -0.361816,-0.0066 -0.164461,0 -0.335502,0.0066 -0.164461,0 -0.276295,0.01316 v -0.131569 q 0.223668,-0.01316 0.335502,-0.06578 0.118412,-0.05921 0.157883,-0.190775 0.03947,-0.138148 0.03947,-0.374973 v -3.197134 q 0,-0.243403 -0.03947,-0.355237 -0.03947,-0.118413 -0.157883,-0.157883 -0.111834,-0.04605 -0.335502,-0.05263 v -0.131569 q 0.111834,0.0066 0.276295,0.01316 0.171041,0.0066 0.335502,0.0066 0.144726,0 0.276296,-0.0066 0.131569,-0.0066 0.236824,-0.01316 l 2.322199,3.578685 V 66.06558 q 0,-0.243404 -0.04605,-0.374973 -0.03947,-0.131569 -0.17104,-0.190775 -0.12499,-0.05921 -0.381551,-0.06579 v -0.131569 q 0.118413,0.0066 0.309188,0.01316 0.197354,0.0066 0.361816,0.0066 0.17104,0 0.335502,-0.0066 0.17104,-0.0066 0.276295,-0.01316 z"
       id="path2415"
       style="font-size:12.7px;font-family:'Playfair Display';-inkscape-font-specification:'Playfair Display, Normal';stroke-width:0.207196;stroke:#ffffff;fill:#ffffff" />
    <path
       d="m 42.296465,65.302475 q 1.177545,0 1.749872,0.592062 0.572326,0.585483 0.572326,1.684087 0,0.717052 -0.282874,1.256486 -0.276295,0.532856 -0.809151,0.828887 -0.532855,0.296031 -1.289379,0.296031 -0.09868,0 -0.263139,-0.0066 -0.164461,-0.0066 -0.34208,-0.0066 -0.17104,-0.0066 -0.315766,-0.0066 -0.230246,0 -0.453914,0.0066 -0.223668,0 -0.361816,0.01316 v -0.131569 q 0.223668,-0.01316 0.335502,-0.05263 0.118412,-0.03947 0.157883,-0.157883 0.03947,-0.118413 0.03947,-0.355237 V 65.99975 q 0,-0.243403 -0.03947,-0.355237 Q 40.954459,65.5261 40.836046,65.48663 40.724212,65.44058 40.500544,65.434 v -0.131569 q 0.138148,0.0066 0.361816,0.01973 0.223668,0.0066 0.440757,0 0.230246,-0.0066 0.519699,-0.01316 0.289452,-0.0066 0.473649,-0.0066 z m -0.164461,0.118412 q -0.30261,0 -0.394708,0.111834 -0.0921,0.111834 -0.0921,0.453914 v 3.289233 q 0,0.34208 0.0921,0.453914 0.09868,0.111834 0.401286,0.111834 0.717053,0 1.111761,-0.25656 0.394708,-0.263139 0.552591,-0.763102 0.157883,-0.499964 0.157883,-1.217017 0,-0.736788 -0.177619,-1.217016 -0.17104,-0.486806 -0.572326,-0.723631 -0.394708,-0.243403 -1.078868,-0.243403 z"
       id="path2417"
       style="font-size:12.7px;font-family:'Playfair Display';-inkscape-font-specification:'Playfair Display, Normal';stroke-width:0.207196;stroke:#ffffff;fill:#ffffff" />
    <path
       d="m 48.519696,65.269582 1.605146,4.137855 q 0.09868,0.249982 0.223668,0.335502 0.124991,0.07894 0.230246,0.08552 v 0.131569 q -0.131569,-0.01316 -0.322345,-0.01316 -0.190775,-0.0066 -0.381551,-0.0066 -0.25656,0 -0.480228,0.0066 -0.223667,0 -0.361815,0.01316 v -0.131569 q 0.335501,-0.01316 0.4276,-0.111834 0.0921,-0.105256 -0.03947,-0.440757 l -1.223594,-3.269498 0.105255,-0.08552 -1.144653,2.973467 q -0.105255,0.263138 -0.124991,0.447335 -0.01974,0.177619 0.03289,0.282874 0.05921,0.105256 0.190775,0.151305 0.138148,0.04605 0.34208,0.05263 v 0.131569 q -0.184197,-0.01316 -0.388129,-0.01316 -0.197354,-0.0066 -0.368394,-0.0066 -0.164462,0 -0.282874,0.0066 -0.111834,0 -0.210513,0.01316 v -0.131569 q 0.131571,-0.03289 0.269719,-0.151305 0.138148,-0.124991 0.249982,-0.421022 l 1.545939,-3.98655 q 0.02631,0 0.05263,0 0.02631,0 0.05263,0 z m 0.802573,2.795848 v 0.131569 h -1.960382 l 0.06578,-0.131569 z"
       id="path2419"
       style="font-size:12.7px;font-family:'Playfair Display';-inkscape-font-specification:'Playfair Display, Normal';stroke-width:0.207196;stroke:#ffffff;fill:#ffffff" />
    <path
       d="m 54.617929,65.210376 q 0.434178,0 0.710474,0.131569 0.282874,0.124991 0.499963,0.296031 0.131569,0.09868 0.197354,0.02631 0.07236,-0.07894 0.09868,-0.361815 h 0.151305 q -0.01316,0.243403 -0.01974,0.592062 -0.0066,0.348658 -0.0066,0.920985 H 56.09806 q -0.04605,-0.282874 -0.08552,-0.447336 -0.03947,-0.17104 -0.09868,-0.289452 -0.05263,-0.118413 -0.144726,-0.236825 -0.203932,-0.269717 -0.51312,-0.38813 -0.309188,-0.124991 -0.651268,-0.124991 -0.322345,0 -0.585484,0.164462 -0.25656,0.157883 -0.447335,0.460493 -0.184197,0.302609 -0.289453,0.730209 -0.09868,0.427601 -0.09868,0.960456 0,0.552591 0.111834,0.980192 0.111834,0.421021 0.309188,0.710474 0.203932,0.289452 0.473649,0.440757 0.276296,0.144726 0.592062,0.144726 0.296031,0 0.618376,-0.118412 0.322345,-0.118413 0.506542,-0.381551 0.144726,-0.190776 0.197354,-0.414443 0.05921,-0.223668 0.105255,-0.624955 h 0.151305 q 0,0.598641 0.0066,0.967035 0.0066,0.361815 0.01974,0.611797 h -0.151305 q -0.02631,-0.282874 -0.0921,-0.355237 -0.05921,-0.07236 -0.203933,0.01973 -0.243403,0.17104 -0.519699,0.30261 -0.269717,0.124991 -0.697317,0.124991 -0.624954,0 -1.098604,-0.282874 -0.467071,-0.282874 -0.730209,-0.81573 -0.25656,-0.532856 -0.25656,-1.282801 0,-0.736788 0.269717,-1.289379 0.269717,-0.552591 0.736788,-0.861779 0.473649,-0.309188 1.085447,-0.309188 z"
       id="path2421"
       style="font-size:12.7px;font-family:'Playfair Display';-inkscape-font-specification:'Playfair Display, Normal';stroke-width:0.207196;stroke:#ffffff;fill:#ffffff" />
    <path
       d="m 60.295149,65.302475 v 0.131569 q -0.223668,0.0066 -0.34208,0.05263 -0.111834,0.03947 -0.151305,0.157883 -0.03947,0.111834 -0.03947,0.355237 v 3.262919 q 0,0.236824 0.03947,0.355237 0.03947,0.118412 0.151305,0.157883 0.118412,0.03947 0.34208,0.05263 v 0.131569 q -0.151304,-0.01316 -0.381551,-0.01316 -0.223668,-0.0066 -0.453914,-0.0066 -0.25656,0 -0.480228,0.0066 -0.223668,0 -0.361815,0.01316 v -0.131569 q 0.223667,-0.01316 0.335501,-0.05263 0.118413,-0.03947 0.157884,-0.157883 0.03947,-0.118413 0.03947,-0.355237 v -3.262919 q 0,-0.243403 -0.03947,-0.355237 -0.03947,-0.118413 -0.157884,-0.157883 -0.111834,-0.04605 -0.335501,-0.05263 v -0.131569 q 0.138147,0.0066 0.361815,0.01316 0.223668,0.0066 0.480228,0.0066 0.230246,0 0.453914,-0.0066 0.230247,-0.0066 0.381551,-0.01316 z"
       id="path2423"
       style="font-size:12.7px;font-family:'Playfair Display';-inkscape-font-specification:'Playfair Display, Normal';stroke-width:0.207196;stroke:#ffffff;fill:#ffffff" />
    <path
       d="m 73.12974,65.302475 v 0.131569 q -0.223668,0.0066 -0.34208,0.06579 -0.111834,0.05921 -0.151305,0.190775 -0.03947,0.131569 -0.03947,0.374973 v 3.927343 q -0.03947,0 -0.07894,0 -0.03289,0 -0.07236,0 l -2.762956,-4.269424 v 3.47343 q 0,0.236825 0.03947,0.374973 0.04605,0.131569 0.17104,0.190775 0.13157,0.05263 0.38813,0.06578 v 0.131569 q -0.118413,-0.01316 -0.309188,-0.01316 -0.190776,-0.0066 -0.361816,-0.0066 -0.164461,0 -0.335501,0.0066 -0.164462,0 -0.276296,0.01316 v -0.131569 q 0.223668,-0.01316 0.335502,-0.06578 0.118412,-0.05921 0.157883,-0.190775 0.03947,-0.138148 0.03947,-0.374973 v -3.197134 q 0,-0.243403 -0.03947,-0.355237 -0.03947,-0.118413 -0.157883,-0.157883 -0.111834,-0.04605 -0.335502,-0.05263 v -0.131569 q 0.111834,0.0066 0.276296,0.01316 0.17104,0.0066 0.335501,0.0066 0.144726,0 0.276296,-0.0066 0.131569,-0.0066 0.236825,-0.01316 l 2.322198,3.578685 V 66.06558 q 0,-0.243404 -0.04605,-0.374973 -0.03947,-0.131569 -0.171041,-0.190775 -0.12499,-0.05921 -0.381551,-0.06579 v -0.131569 q 0.118413,0.0066 0.309188,0.01316 0.197354,0.0066 0.361816,0.0066 0.17104,0 0.335502,-0.0066 0.17104,-0.0066 0.276295,-0.01316 z"
       id="path2427"
       style="font-size:12.7px;font-family:'Playfair Display';-inkscape-font-specification:'Playfair Display, Normal';stroke-width:0.207196;stroke:#ffffff;fill:#ffffff" />
    <path
       d="m 9.6158303,73.265054 v 0.171569 q -0.2916663,0.0086 -0.4460779,0.06863 -0.1458332,0.05149 -0.1973037,0.20588 -0.051473,0.145835 -0.051473,0.463238 v 4.254894 q 0,0.308826 0.051473,0.463238 0.051473,0.154413 0.1973037,0.20588 0.1544116,0.05149 0.4460779,0.06863 v 0.171568 q -0.1973037,-0.01714 -0.4975485,-0.01714 -0.2916663,-0.0086 -0.5919116,-0.0086 -0.3345585,0 -0.6262248,0.0086 -0.2916664,0 -0.4718133,0.01714 V 79.16701 q 0.2916664,-0.01715 0.4374996,-0.06863 0.1544116,-0.05149 0.2058821,-0.20588 0.051473,-0.154412 0.051473,-0.463238 V 73.71113 l 0.034312,0.02574 -2.1017134,5.644603 H 5.9185298 L 3.7567674,73.814081 v 4.529403 q 0,0.308826 0.051473,0.488972 0.060049,0.171568 0.223039,0.248775 0.1715684,0.06863 0.5061269,0.08578 v 0.171568 q -0.1544116,-0.01714 -0.4031858,-0.01714 -0.2487743,-0.0086 -0.4718133,-0.0086 -0.2144605,0 -0.4374995,0.0086 -0.2144606,0 -0.3602937,0.01714 v -0.171568 q 0.2916663,-0.01715 0.4374995,-0.08578 0.1544116,-0.07721 0.2058821,-0.248775 0.051473,-0.180146 0.051473,-0.488972 v -4.16911 q 0,-0.317403 -0.051473,-0.463238 -0.051473,-0.154407 -0.2058821,-0.20588 -0.1458332,-0.06005 -0.4374995,-0.06863 v -0.171569 q 0.1458331,0.0086 0.3602937,0.01715 0.223039,0.0086 0.4374995,0.0086 0.1887253,0 0.386029,-0.0086 0.2058822,-0.0086 0.3431369,-0.01715 l 1.9473019,5.129898 -0.1458332,0.06863 1.930145,-5.172787 q 0.1029411,0 0.1973037,0 0.1029411,0 0.2058822,0 0.3002453,0 0.5919116,-0.0086 0.3002448,-0.0086 0.4975485,-0.01715 z"
       id="path2430"
       style="font-size:16.561px;font-family:'Playfair Display';-inkscape-font-specification:'Playfair Display, Normal';stroke-width:0.270186;stroke:#ffffff;fill:#ffffff" />
    <path
       d="m 14.591319,73.222165 2.093135,5.395828 q 0.128677,0.325976 0.291667,0.437499 0.16299,0.10294 0.300245,0.111518 v 0.171568 q -0.171569,-0.01714 -0.420343,-0.01714 -0.248774,-0.0086 -0.497549,-0.0086 -0.334558,0 -0.626224,0.0086 -0.291667,0 -0.471814,0.01714 V 79.16701 q 0.4375,-0.01715 0.557598,-0.145835 0.120098,-0.137252 -0.05147,-0.574751 l -1.595587,-4.263477 0.137255,-0.111518 -1.492646,3.877446 q -0.137254,0.343137 -0.16299,0.583334 -0.02573,0.231613 0.04289,0.36887 0.07721,0.137257 0.248774,0.197302 0.180147,0.06005 0.446078,0.06863 v 0.171568 q -0.240196,-0.01714 -0.506127,-0.01714 -0.257352,-0.0086 -0.480391,-0.0086 -0.214461,0 -0.368872,0.0086 -0.145834,0 -0.27451,0.01714 V 79.16701 q 0.171569,-0.04289 0.351715,-0.197302 0.180147,-0.162991 0.32598,-0.549023 l 2.01593,-5.19852 q 0.03431,0 0.06863,0 0.03431,0 0.06863,0 z m 1.046568,3.645827 v 0.171568 h -2.55637 l 0.08578,-0.171568 z"
       id="path2432"
       style="font-size:16.561px;font-family:'Playfair Display';-inkscape-font-specification:'Playfair Display, Normal';stroke-width:0.270186;stroke:#ffffff;fill:#ffffff" />
    <path
       d="m 25.108463,73.265054 v 0.171569 q -0.291666,0.0086 -0.446078,0.08578 -0.145833,0.07721 -0.197304,0.248775 -0.05147,0.171568 -0.05147,0.488971 v 5.12132 q -0.05147,0 -0.102941,0 -0.0429,0 -0.09436,0 l -3.602937,-5.567397 v 4.529403 q 0,0.308825 0.05147,0.488972 0.06005,0.171568 0.223039,0.248775 0.171569,0.06863 0.506127,0.08578 v 0.171568 q -0.154411,-0.01714 -0.403186,-0.01714 -0.248774,-0.0086 -0.471813,-0.0086 -0.21446,0 -0.437499,0.0086 -0.214461,0 -0.360294,0.01714 v -0.17156 q 0.291666,-0.01715 0.437499,-0.08578 0.154412,-0.07721 0.205883,-0.248775 0.05147,-0.180147 0.05147,-0.488972 v -4.16911 q 0,-0.317403 -0.05147,-0.463238 -0.05147,-0.154407 -0.205883,-0.20588 -0.145833,-0.06005 -0.437499,-0.06863 v -0.171569 q 0.145833,0.0086 0.360294,0.01715 0.223039,0.0086 0.437499,0.0086 0.188725,0 0.360294,-0.0086 0.171568,-0.0086 0.308823,-0.01715 l 3.028183,4.666665 v -3.671566 q 0,-0.317403 -0.06005,-0.488971 -0.05147,-0.171569 -0.223039,-0.248775 -0.16299,-0.07721 -0.497548,-0.08578 V 73.26506 q 0.154411,0.0086 0.403186,0.01715 0.257352,0.0086 0.471813,0.0086 0.223039,0 0.437499,-0.0086 0.223039,-0.0086 0.360294,-0.01715 z"
       id="path2434"
       style="font-size:16.561px;font-family:'Playfair Display';-inkscape-font-specification:'Playfair Display, Normal';stroke-width:0.270186;stroke:#ffffff;fill:#ffffff" />
    <path
       d="m 30.735908,73.144958 q 0.81495,0 1.424018,0.368871 0.617646,0.368871 0.952205,1.063727 0.343136,0.686274 0.343136,1.67279 0,0.960782 -0.351715,1.681373 -0.343137,0.720585 -0.960783,1.123773 -0.617647,0.403187 -1.41544,0.403187 -0.81495,0 -1.432596,-0.368876 -0.609068,-0.36887 -0.952205,-1.063722 -0.334559,-0.694852 -0.334559,-1.672795 0,-0.960782 0.351716,-1.681367 0.351715,-0.720591 0.960783,-1.123773 0.617646,-0.403188 1.41544,-0.403188 z m -0.03431,0.154413 q -0.557597,0 -0.969362,0.386026 -0.411764,0.386032 -0.643381,1.063728 -0.223039,0.677691 -0.223039,1.56985 0,0.909309 0.248774,1.587005 0.257352,0.669118 0.686274,1.037989 0.437499,0.360298 0.960783,0.360298 0.557597,0 0.969362,-0.386032 0.411764,-0.386026 0.634803,-1.063722 0.231617,-0.686274 0.231617,-1.569855 0,-0.917888 -0.257352,-1.587006 -0.248775,-0.669118 -0.677696,-1.02941 -0.428921,-0.368871 -0.960783,-0.368871 z"
       id="path2436"
       style="font-size:16.561px;font-family:'Playfair Display';-inkscape-font-specification:'Playfair Display, Normal';stroke-width:0.270186;stroke:#ffffff;fill:#ffffff" />
    <path
       d="m 38.242025,73.170692 q 0.428921,0 0.65196,0.10294 0.223039,0.09436 0.394608,0.214463 0.102941,0.06005 0.16299,0.09436 0.06863,0.02574 0.128676,0.02574 0.08578,0 0.120098,-0.09436 0.04289,-0.09436 0.06863,-0.283086 h 0.197304 q -0.0086,0.145835 -0.02573,0.351715 -0.0086,0.197302 -0.01716,0.531861 0,0.325981 0,0.86642 h -0.197303 q -0.02573,-0.411765 -0.180147,-0.789214 -0.154412,-0.377448 -0.454657,-0.617645 -0.291666,-0.240197 -0.772058,-0.240197 -0.454656,0 -0.754901,0.274508 -0.291666,0.274509 -0.291666,0.720591 0,0.386026 0.197304,0.651957 0.197303,0.257353 0.523283,0.471816 0.334559,0.20588 0.720588,0.446077 0.446078,0.274508 0.789215,0.549017 0.351715,0.26593 0.549019,0.591911 0.205882,0.325981 0.205882,0.789214 0,0.549022 -0.248774,0.909315 -0.248775,0.360293 -0.660539,0.540439 -0.411764,0.180152 -0.909313,0.180152 -0.454656,0 -0.720587,-0.102946 -0.265931,-0.10294 -0.454657,-0.214458 -0.188725,-0.120101 -0.291666,-0.120101 -0.08578,0 -0.128677,0.09437 -0.03431,0.09436 -0.06005,0.283086 h -0.197303 q 0.01716,-0.180146 0.01716,-0.420343 0.0086,-0.248775 0.0086,-0.643384 0.0086,-0.394605 0.0086,-0.995094 h 0.197304 q 0.03431,0.514705 0.188726,0.960782 0.16299,0.446077 0.48897,0.720585 0.334558,0.265936 0.883577,0.265936 0.283088,0 0.531862,-0.111523 0.257353,-0.120096 0.420343,-0.368871 0.16299,-0.257352 0.16299,-0.66054 0,-0.351714 -0.171568,-0.609067 -0.16299,-0.265931 -0.463235,-0.488972 -0.300245,-0.231614 -0.703431,-0.47181 -0.403186,-0.248775 -0.754901,-0.506128 -0.351715,-0.257353 -0.566176,-0.591912 -0.205882,-0.343136 -0.205882,-0.82353 0,-0.506122 0.223039,-0.832103 0.231618,-0.334559 0.60049,-0.488972 0.368872,-0.162991 0.789215,-0.162991 z"
       id="path2438"
       style="font-size:16.561px;font-family:'Playfair Display';-inkscape-font-specification:'Playfair Display, Normal';stroke-width:0.270186;stroke:#ffffff;fill:#ffffff" />
    <path
       d="m 49.591297,73.265054 q -0.03429,0.300248 -0.05149,0.583334 -0.0086,0.283086 -0.0086,0.428921 0,0.154413 0.0086,0.300247 0.0086,0.137252 0.01715,0.231614 h -0.197308 q -0.05149,-0.506127 -0.145829,-0.797792 -0.09436,-0.300247 -0.325981,-0.420343 -0.223041,-0.128674 -0.677696,-0.128674 h -0.712008 q -0.291669,0 -0.446077,0.05149 -0.145834,0.04289 -0.197307,0.197302 -0.05149,0.145835 -0.05149,0.463238 v 4.254894 q 0,0.308825 0.05149,0.463238 0.05149,0.154413 0.197307,0.20588 0.154408,0.04289 0.446077,0.04289 h 0.626224 q 0.540439,0 0.814952,-0.145835 0.283087,-0.145835 0.403183,-0.471811 0.128678,-0.334559 0.188724,-0.900737 h 0.197307 q -0.02574,0.231619 -0.02574,0.617646 0,0.16299 0.0086,0.471815 0.01714,0.300243 0.05149,0.626224 -0.437499,-0.01715 -0.986516,-0.01715 -0.549022,-0.0086 -0.977943,-0.0086 -0.188725,0 -0.488967,0 -0.291669,0 -0.634806,0.0086 -0.343139,0 -0.694854,0.0086 -0.351715,0 -0.669117,0.0086 v -0.171569 q 0.291669,-0.01714 0.437498,-0.06863 0.154413,-0.05149 0.205885,-0.20588 0.05149,-0.154413 0.05149,-0.463238 v -4.254895 q 0,-0.317403 -0.05149,-0.463238 -0.05149,-0.154407 -0.205885,-0.20588 -0.145829,-0.06005 -0.437498,-0.06863 v -0.171569 q 0.317402,0.0086 0.669117,0.01715 0.351715,0 0.694854,0.0086 0.343137,0 0.634806,0 0.300242,0 0.488967,0 0.394609,0 0.892159,0 0.506127,-0.0086 0.900731,-0.02575 z m -1.475487,2.93382 q 0,0 0,0.08578 0,0.08578 0,0.08578 h -1.56985 q 0,0 0,-0.08578 0,-0.08578 0,-0.08578 z m 0.248775,-1.132351 q -0.03429,0.488971 -0.03429,0.746324 0.0086,0.257353 0.0086,0.471811 0,0.214463 0.0086,0.471816 0.0086,0.257352 0.04289,0.746324 h -0.197302 q -0.03429,-0.274514 -0.08578,-0.531866 -0.04289,-0.265931 -0.205885,-0.428922 -0.154408,-0.171568 -0.531861,-0.171568 v -0.171568 q 0.283091,0 0.428921,-0.111518 0.154412,-0.120096 0.223041,-0.300243 0.06863,-0.180146 0.09436,-0.368875 0.02574,-0.197303 0.05149,-0.351715 z"
       id="path2440"
       style="font-size:16.561px;font-family:'Playfair Display';-inkscape-font-specification:'Playfair Display, Normal';stroke-width:0.270186;stroke:#ffffff;fill:#ffffff" />
    <path
       d="m 57.183199,73.265054 q -0.03429,0.325981 -0.05149,0.634807 -0.0086,0.300242 -0.0086,0.463232 0,0.20588 0.0086,0.386032 0.0086,0.180146 0.01715,0.317398 h -0.197308 q -0.06005,-0.60049 -0.16299,-0.943627 -0.10294,-0.351714 -0.360293,-0.506127 -0.257352,-0.154408 -0.797791,-0.154408 h -0.463238 v 4.881118 q 0,0.343137 0.06005,0.514705 0.06863,0.171574 0.257353,0.231619 0.188724,0.06005 0.549017,0.07721 v 0.171568 q -0.223036,-0.01714 -0.566173,-0.01714 -0.343137,-0.0086 -0.694852,-0.0086 -0.386031,0 -0.729168,0.0086 -0.334559,0 -0.540439,0.01714 V 79.16701 q 0.360292,-0.01715 0.549017,-0.07721 0.188729,-0.06005 0.248774,-0.231619 0.06863,-0.171568 0.06863,-0.514705 v -4.881118 h -0.463233 q -0.531866,0 -0.797797,0.154408 -0.257352,0.154413 -0.360292,0.506127 -0.10294,0.343137 -0.162991,0.943627 h -0.197302 q 0.01714,-0.137252 0.01714,-0.317398 0.0086,-0.180152 0.0086,-0.386032 0,-0.16299 -0.01715,-0.463232 -0.0086,-0.308826 -0.04289,-0.634807 0.360293,0.0086 0.780636,0.01715 0.428921,0.0086 0.857842,0.0086 0.428921,0 0.780636,0 0.351715,0 0.772058,0 0.428921,0 0.857842,-0.0086 0.428921,-0.0086 0.780636,-0.01715 z"
       id="path2442"
       style="font-size:16.561px;font-family:'Playfair Display';-inkscape-font-specification:'Playfair Display, Normal';stroke-width:0.270186;stroke:#ffffff;fill:#ffffff" />
    <path
       d="m 67.082701,73.265054 q 0.180151,0.0086 0.471816,0.01715 0.291664,0.0086 0.574756,0.0086 0.403182,0 0.772058,-0.0086 0.36887,-0.0086 0.523283,-0.0086 0.694852,0 1.149506,0.197307 0.463238,0.197302 0.686274,0.540439 0.231619,0.334559 0.231619,0.754903 0,0.257352 -0.10294,0.549017 -0.102945,0.291669 -0.360298,0.549022 -0.248769,0.257352 -0.686274,0.428921 -0.437499,0.162985 -1.106611,0.162985 H 68.412359 V 76.28463 h 0.737746 q 0.609068,0 0.926466,-0.188725 0.325981,-0.197302 0.437499,-0.514705 0.120101,-0.325981 0.120101,-0.720585 0,-0.677696 -0.325981,-1.046567 -0.317403,-0.377453 -1.098039,-0.377453 -0.394605,0 -0.514706,0.145834 -0.120095,0.145835 -0.120095,0.591912 v 4.254894 q 0,0.308826 0.05149,0.463238 0.05149,0.154413 0.197307,0.20588 0.154413,0.05149 0.446077,0.06863 v 0.171568 q -0.197302,-0.01714 -0.49755,-0.01714 -0.291664,-0.0086 -0.591911,-0.0086 -0.334559,0 -0.626224,0.0086 -0.291664,0 -0.471815,0.01714 v -0.171568 q 0.291669,-0.01715 0.437504,-0.06863 0.154407,-0.05149 0.20588,-0.20588 0.05149,-0.154412 0.05149,-0.463238 v -4.254894 q 0,-0.317403 -0.05149,-0.463238 -0.05149,-0.154407 -0.20588,-0.20588 -0.145835,-0.06005 -0.437504,-0.06863 z m 1.36397,3.045343 q 0.463238,0.01714 0.729168,0.04289 0.265931,0.01715 0.428921,0.03429 0.171569,0.01715 0.325981,0.04289 0.574751,0.09436 0.823526,0.351714 0.257352,0.248775 0.377453,0.780636 l 0.214458,0.875004 q 0.08579,0.377448 0.171569,0.549016 0.09436,0.162991 0.283086,0.154413 0.145835,-0.0086 0.240197,-0.09436 0.10294,-0.08578 0.214463,-0.231619 l 0.128674,0.09436 q -0.180146,0.265931 -0.377449,0.411765 -0.188724,0.137257 -0.540439,0.137257 -0.317403,0 -0.5576,-0.188729 Q 70.668482,79.0812 70.548387,78.532183 L 70.359662,77.67434 Q 70.282456,77.305465 70.179516,77.039534 70.085149,76.765026 69.905002,76.610613 69.733434,76.4562 69.390297,76.4562 h -0.926465 z"
       id="path2446"
       style="font-size:16.561px;font-family:'Playfair Display';-inkscape-font-specification:'Playfair Display, Normal';stroke-width:0.270186;stroke:#ffffff;fill:#ffffff" />
    <path
       d="m 78.955256,73.265054 q -0.03429,0.300248 -0.05149,0.583334 -0.0086,0.283086 -0.0086,0.428921 0,0.154413 0.0086,0.300247 0.0086,0.137252 0.01714,0.231614 h -0.197307 q -0.05149,-0.506127 -0.14583,-0.797792 -0.09436,-0.300247 -0.325981,-0.420343 -0.223041,-0.128674 -0.677696,-0.128674 h -0.712007 q -0.291669,0 -0.446082,0.05149 -0.14583,0.04289 -0.197302,0.197302 -0.05149,0.145835 -0.05149,0.463238 v 4.254894 q 0,0.308825 0.05149,0.463238 0.05149,0.154413 0.197302,0.20588 0.154413,0.04289 0.446082,0.04289 h 0.626223 q 0.540439,0 0.814948,-0.145835 0.283091,-0.145835 0.403187,-0.471811 0.128679,-0.334559 0.188724,-0.900737 h 0.197308 q -0.02574,0.231619 -0.02574,0.617646 0,0.16299 0.0086,0.471815 0.01715,0.300243 0.05149,0.626224 -0.437499,-0.01715 -0.986516,-0.01715 -0.549022,-0.0086 -0.977943,-0.0086 -0.188724,0 -0.488971,0 -0.291665,0 -0.634802,0.0086 -0.343136,0 -0.694851,0.0086 -0.351715,0 -0.669118,0.0086 v -0.171569 q 0.291669,-0.01714 0.437499,-0.06863 0.154412,-0.05149 0.205885,-0.20588 0.05149,-0.154413 0.05149,-0.463238 v -4.254895 q 0,-0.317403 -0.05149,-0.463238 -0.05149,-0.154407 -0.205885,-0.20588 -0.14583,-0.06005 -0.437499,-0.06863 v -0.171569 q 0.317403,0.0086 0.669118,0.01715 0.351715,0 0.694851,0.0086 0.343137,0 0.634802,0 0.300247,0 0.488971,0 0.39461,0 0.892159,0 0.506123,-0.0086 0.900732,-0.02575 z m -1.475488,2.93382 q 0,0 0,0.08578 0,0.08578 0,0.08578 h -1.569849 q 0,0 0,-0.08578 0,-0.08578 0,-0.08578 z m 0.248775,-1.132351 q -0.03429,0.488971 -0.03429,0.746324 0.0086,0.257353 0.0086,0.471811 0,0.214463 0.0086,0.471816 0.0086,0.257352 0.04289,0.746324 h -0.197302 q -0.03429,-0.274514 -0.08578,-0.531866 -0.04289,-0.265931 -0.205886,-0.428922 -0.154407,-0.171568 -0.531861,-0.171568 v -0.171568 q 0.283087,0 0.428921,-0.111518 0.154413,-0.120096 0.223041,-0.300243 0.06863,-0.180146 0.09436,-0.368875 0.02574,-0.197303 0.05149,-0.351715 z"
       id="path2448"
       style="font-size:16.561px;font-family:'Playfair Display';-inkscape-font-specification:'Playfair Display, Normal';stroke-width:0.270186;stroke:#ffffff;fill:#ffffff" />
    <path
       d="m 84.153777,73.222165 2.093133,5.395828 q 0.128679,0.325976 0.291669,0.437499 0.162991,0.10294 0.300242,0.111518 v 0.171568 q -0.171568,-0.01714 -0.420343,-0.01714 -0.248775,-0.0086 -0.497549,-0.0086 -0.334559,0 -0.626224,0.0086 -0.291664,0 -0.47181,0.01714 V 79.16701 q 0.437499,-0.01715 0.557595,-0.145835 0.120095,-0.137252 -0.05149,-0.574751 l -1.595584,-4.263477 0.137252,-0.111518 -1.492644,3.877446 q -0.137257,0.343137 -0.16299,0.583334 -0.02574,0.231613 0.04289,0.36887 0.07721,0.137257 0.248775,0.197302 0.180146,0.06005 0.446077,0.06863 v 0.171568 q -0.240197,-0.01714 -0.506127,-0.01714 -0.257353,-0.0086 -0.480394,-0.0086 -0.214458,0 -0.368871,0.0086 -0.145835,0 -0.274508,0.01714 V 79.16701 q 0.171568,-0.04289 0.351715,-0.197302 0.180146,-0.162991 0.325981,-0.549023 l 2.015926,-5.19852 q 0.03434,0 0.06863,0 0.03429,0 0.06863,0 z m 1.046566,3.645827 v 0.171568 h -2.556371 l 0.08579,-0.171568 z"
       id="path2450"
       style="font-size:16.561px;font-family:'Playfair Display';-inkscape-font-specification:'Playfair Display, Normal';stroke-width:0.270186;stroke:#ffffff;fill:#ffffff" />
    <path
       d="m 91.11945,73.170692 q 0.428921,0 0.651962,0.10294 0.223041,0.09436 0.394609,0.214463 0.10294,0.06005 0.162991,0.09436 0.06862,0.02574 0.128673,0.02574 0.08579,0 0.120096,-0.09436 0.04289,-0.09436 0.06863,-0.283086 h 0.197307 q -0.0086,0.145835 -0.02574,0.351715 -0.0086,0.197302 -0.01714,0.531861 0,0.325981 0,0.86642 h -0.197303 q -0.02574,-0.411765 -0.180146,-0.789214 -0.154413,-0.377448 -0.45466,-0.617645 -0.291664,-0.240197 -0.772058,-0.240197 -0.454655,0 -0.754897,0.274508 -0.291669,0.274509 -0.291669,0.720591 0,0.386026 0.197302,0.651957 0.197307,0.257353 0.523288,0.471816 0.334554,0.20588 0.720585,0.446077 0.446077,0.274508 0.789214,0.549017 0.351715,0.26593 0.549022,0.591911 0.205881,0.325981 0.205881,0.789214 0,0.549022 -0.248775,0.909315 -0.248775,0.360293 -0.66054,0.540439 -0.41176,0.180152 -0.90931,0.180152 -0.45466,0 -0.720591,-0.102946 -0.26593,-0.10294 -0.454654,-0.214458 -0.188725,-0.120101 -0.291665,-0.120101 -0.08578,0 -0.128679,0.09437 -0.03429,0.09436 -0.06005,0.283086 h -0.197302 q 0.01714,-0.180146 0.01714,-0.420343 0.0086,-0.248775 0.0086,-0.643384 0.0086,-0.394605 0.0086,-0.995094 h 0.197303 q 0.03429,0.514705 0.188724,0.960782 0.16299,0.446077 0.488971,0.720585 0.334559,0.265936 0.883576,0.265936 0.283087,0 0.531862,-0.111523 0.257352,-0.120096 0.420343,-0.368871 0.16299,-0.257352 0.16299,-0.66054 0,-0.351714 -0.171568,-0.609067 -0.162991,-0.265931 -0.463233,-0.488972 -0.300247,-0.231614 -0.703435,-0.47181 -0.403182,-0.248775 -0.754897,-0.506128 -0.351714,-0.257353 -0.566178,-0.591912 -0.20588,-0.343136 -0.20588,-0.82353 0,-0.506122 0.223036,-0.832103 0.231619,-0.334559 0.60049,-0.488972 0.368876,-0.162991 0.789214,-0.162991 z"
       id="path2452"
       style="font-size:16.561px;font-family:'Playfair Display';-inkscape-font-specification:'Playfair Display, Normal';stroke-width:0.270186;stroke:#ffffff;fill:#ffffff" />
  </g>
</svg>
